<svg width="475" height="149" viewBox="0 0 475 149" fill="none" xmlns="http://www.w3.org/2000/svg">
<g filter="url(#filter0_dd_123_675)">
<path d="M12 10C12 5.58172 15.5817 2 20 2H455C459.418 2 463 5.58172 463 10V119C463 123.418 459.418 127 455 127H20C15.5817 127 12 123.418 12 119V10Z" fill="#FF9E18"/>
<path d="M20 2.5H455C459.142 2.5 462.5 5.85787 462.5 10V119C462.5 123.142 459.142 126.5 455 126.5H20C15.8579 126.5 12.5 123.142 12.5 119V10C12.5 5.85787 15.8579 2.5 20 2.5Z" stroke="#E2E8F0"/>
<path d="M48.0874 32.9091V46H45.6967L40.0014 37.7607H39.9055V46H37.1378V32.9091H39.5668L45.2173 41.142H45.3324V32.9091H48.0874ZM50.323 46V36.1818H53.046V46H50.323ZM50.7129 34.9162L52.068 32.0078H54.5865L52.6369 34.9162H50.7129ZM64.3807 36.1818L60.9482 46H57.88L54.4474 36.1818H57.3239L59.3629 43.2067H59.4652L61.4979 36.1818H64.3807ZM69.9322 46.1918C68.9222 46.1918 68.0529 45.9872 67.3242 45.5781C66.5998 45.1648 66.0415 44.581 65.6495 43.8267C65.2575 43.0682 65.0614 42.1712 65.0614 41.1357C65.0614 40.1257 65.2575 39.2393 65.6495 38.4766C66.0415 37.7138 66.5934 37.1193 67.305 36.6932C68.021 36.267 68.8604 36.054 69.8235 36.054C70.4712 36.054 71.0742 36.1584 71.6325 36.3672C72.195 36.5717 72.685 36.8807 73.1026 37.294C73.5245 37.7074 73.8526 38.2273 74.087 38.8537C74.3214 39.4759 74.4386 40.2045 74.4386 41.0398V41.7876H66.1481V40.1001H71.8754C71.8754 39.7081 71.7901 39.3608 71.6197 39.0582C71.4492 38.7557 71.2127 38.5192 70.9102 38.3487C70.6119 38.174 70.2646 38.0866 69.8683 38.0866C69.4549 38.0866 69.0884 38.1825 68.7688 38.3743C68.4535 38.5618 68.2063 38.8153 68.0273 39.1349C67.8484 39.4503 67.7567 39.8018 67.7525 40.1896V41.794C67.7525 42.2798 67.842 42.6996 68.021 43.0533C68.2042 43.407 68.462 43.6797 68.7944 43.8714C69.1268 44.0632 69.521 44.1591 69.9769 44.1591C70.2795 44.1591 70.5565 44.1165 70.8079 44.0312C71.0593 43.946 71.2745 43.8182 71.4535 43.6477C71.6325 43.4773 71.7688 43.2685 71.8626 43.0213L74.381 43.1875C74.2532 43.7926 73.9911 44.321 73.5948 44.7727C73.2028 45.2202 72.6957 45.5696 72.0735 45.821C71.4556 46.0682 70.7418 46.1918 69.9322 46.1918ZM78.9386 32.9091V46H76.2156V32.9091H78.9386ZM89.7603 46.1918C88.7504 46.1918 87.881 45.9872 87.1523 45.5781C86.4279 45.1648 85.8697 44.581 85.4776 43.8267C85.0856 43.0682 84.8896 42.1712 84.8896 41.1357C84.8896 40.1257 85.0856 39.2393 85.4776 38.4766C85.8697 37.7138 86.4215 37.1193 87.1332 36.6932C87.8491 36.267 88.6886 36.054 89.6516 36.054C90.2994 36.054 90.9023 36.1584 91.4606 36.3672C92.0231 36.5717 92.5131 36.8807 92.9308 37.294C93.3526 37.7074 93.6808 38.2273 93.9151 38.8537C94.1495 39.4759 94.2667 40.2045 94.2667 41.0398V41.7876H85.9762V40.1001H91.7035C91.7035 39.7081 91.6183 39.3608 91.4478 39.0582C91.2773 38.7557 91.0408 38.5192 90.7383 38.3487C90.44 38.174 90.0927 38.0866 89.6964 38.0866C89.283 38.0866 88.9165 38.1825 88.5969 38.3743C88.2816 38.5618 88.0344 38.8153 87.8555 39.1349C87.6765 39.4503 87.5849 39.8018 87.5806 40.1896V41.794C87.5806 42.2798 87.6701 42.6996 87.8491 43.0533C88.0323 43.407 88.2901 43.6797 88.6225 43.8714C88.9549 44.0632 89.3491 44.1591 89.805 44.1591C90.1076 44.1591 90.3846 44.1165 90.636 44.0312C90.8874 43.946 91.1026 43.8182 91.2816 43.6477C91.4606 43.4773 91.5969 43.2685 91.6907 43.0213L94.2092 43.1875C94.0813 43.7926 93.8192 44.321 93.4229 44.7727C93.0309 45.2202 92.5238 45.5696 91.9016 45.821C91.2837 46.0682 90.57 46.1918 89.7603 46.1918ZM96.0437 46V36.1818H98.6388V37.9141H98.7539C98.9585 37.3388 99.2994 36.8849 99.7766 36.5526C100.254 36.2202 100.825 36.054 101.49 36.054C102.163 36.054 102.736 36.2223 103.209 36.5589C103.682 36.8913 103.998 37.343 104.155 37.9141H104.257C104.458 37.3516 104.82 36.902 105.344 36.5653C105.873 36.2244 106.497 36.054 107.217 36.054C108.133 36.054 108.877 36.3459 109.448 36.9297C110.023 37.5092 110.311 38.3317 110.311 39.397V46H107.594V39.9339C107.594 39.3885 107.449 38.9794 107.159 38.7067C106.87 38.4339 106.507 38.2976 106.073 38.2976C105.578 38.2976 105.193 38.4553 104.916 38.7706C104.639 39.0817 104.5 39.4929 104.5 40.0043V46H101.86V39.8764C101.86 39.3949 101.722 39.0114 101.445 38.7259C101.172 38.4403 100.812 38.2976 100.365 38.2976C100.062 38.2976 99.7894 38.3743 99.5465 38.5277C99.3079 38.6768 99.1183 38.8878 98.9776 39.1605C98.837 39.429 98.7667 39.7443 98.7667 40.1065V46H96.0437ZM121.064 46.1918C120.058 46.1918 119.193 45.9787 118.469 45.5526C117.748 45.1222 117.194 44.5256 116.807 43.7628C116.423 43 116.231 42.1222 116.231 41.1293C116.231 40.1236 116.425 39.2415 116.813 38.483C117.205 37.7202 117.761 37.1257 118.481 36.6996C119.202 36.2692 120.058 36.054 121.051 36.054C121.907 36.054 122.657 36.2095 123.301 36.5206C123.944 36.8317 124.454 37.2685 124.829 37.831C125.204 38.3935 125.41 39.054 125.449 39.8125H122.879C122.807 39.3224 122.615 38.9283 122.304 38.63C121.997 38.3274 121.594 38.1761 121.096 38.1761C120.674 38.1761 120.305 38.2912 119.99 38.5213C119.679 38.7472 119.436 39.0774 119.261 39.5121C119.086 39.9467 118.999 40.473 118.999 41.0909C118.999 41.7173 119.084 42.25 119.255 42.6889C119.43 43.1278 119.675 43.4624 119.99 43.6925C120.305 43.9226 120.674 44.0376 121.096 44.0376C121.407 44.0376 121.686 43.9737 121.933 43.8459C122.184 43.718 122.391 43.5327 122.553 43.2898C122.719 43.0426 122.828 42.7464 122.879 42.4013H125.449C125.406 43.1513 125.202 43.8118 124.835 44.3828C124.473 44.9496 123.972 45.3928 123.333 45.7124C122.694 46.032 121.937 46.1918 121.064 46.1918ZM131.628 46.1918C130.635 46.1918 129.777 45.9808 129.052 45.5589C128.332 45.1328 127.776 44.5405 127.384 43.782C126.992 43.0192 126.796 42.1349 126.796 41.1293C126.796 40.1151 126.992 39.2287 127.384 38.4702C127.776 37.7074 128.332 37.1151 129.052 36.6932C129.777 36.267 130.635 36.054 131.628 36.054C132.621 36.054 133.478 36.267 134.198 36.6932C134.922 37.1151 135.48 37.7074 135.873 38.4702C136.265 39.2287 136.461 40.1151 136.461 41.1293C136.461 42.1349 136.265 43.0192 135.873 43.782C135.48 44.5405 134.922 45.1328 134.198 45.5589C133.478 45.9808 132.621 46.1918 131.628 46.1918ZM131.641 44.0824C132.093 44.0824 132.47 43.9545 132.772 43.6989C133.075 43.4389 133.303 43.0852 133.456 42.6378C133.614 42.1903 133.693 41.6811 133.693 41.1101C133.693 40.5391 133.614 40.0298 133.456 39.5824C133.303 39.1349 133.075 38.7812 132.772 38.5213C132.47 38.2614 132.093 38.1314 131.641 38.1314C131.185 38.1314 130.801 38.2614 130.49 38.5213C130.184 38.7812 129.951 39.1349 129.794 39.5824C129.64 40.0298 129.564 40.5391 129.564 41.1101C129.564 41.6811 129.64 42.1903 129.794 42.6378C129.951 43.0852 130.184 43.4389 130.49 43.6989C130.801 43.9545 131.185 44.0824 131.641 44.0824ZM140.954 40.3239V46H138.231V36.1818H140.826V37.9141H140.941C141.159 37.343 141.523 36.8913 142.034 36.5589C142.546 36.2223 143.166 36.054 143.895 36.054C144.576 36.054 145.171 36.2031 145.678 36.5014C146.185 36.7997 146.579 37.2259 146.86 37.7798C147.142 38.3295 147.282 38.9858 147.282 39.7486V46H144.559V40.2344C144.564 39.6335 144.41 39.1648 144.099 38.8281C143.788 38.4872 143.36 38.3168 142.814 38.3168C142.448 38.3168 142.124 38.3956 141.843 38.5533C141.566 38.7109 141.348 38.9411 141.191 39.2436C141.037 39.5419 140.958 39.902 140.954 40.3239ZM157.597 38.9815L155.105 39.1349C155.062 38.9219 154.97 38.7301 154.83 38.5597C154.689 38.3849 154.504 38.2464 154.274 38.1442C154.048 38.0376 153.777 37.9844 153.462 37.9844C153.04 37.9844 152.684 38.0739 152.394 38.2528C152.105 38.4276 151.96 38.6619 151.96 38.956C151.96 39.1903 152.053 39.3885 152.241 39.5504C152.428 39.7124 152.75 39.8423 153.206 39.9403L154.983 40.2983C155.938 40.4943 156.649 40.8097 157.118 41.2443C157.587 41.679 157.821 42.25 157.821 42.9574C157.821 43.6009 157.632 44.1655 157.252 44.6513C156.877 45.1371 156.362 45.5163 155.705 45.7891C155.053 46.0575 154.301 46.1918 153.449 46.1918C152.149 46.1918 151.114 45.9212 150.343 45.38C149.575 44.8345 149.126 44.093 148.994 43.1555L151.672 43.0149C151.753 43.4112 151.949 43.7138 152.26 43.9226C152.571 44.1271 152.97 44.2294 153.455 44.2294C153.933 44.2294 154.316 44.1378 154.606 43.9545C154.9 43.767 155.049 43.5263 155.053 43.2322C155.049 42.9851 154.945 42.7827 154.74 42.625C154.536 42.4631 154.22 42.3395 153.794 42.2543L152.094 41.9155C151.135 41.7237 150.421 41.3913 149.953 40.9183C149.488 40.4453 149.256 39.8423 149.256 39.1094C149.256 38.4787 149.426 37.9354 149.767 37.4794C150.112 37.0234 150.596 36.6719 151.218 36.4247C151.845 36.1776 152.578 36.054 153.417 36.054C154.657 36.054 155.633 36.3161 156.345 36.8402C157.061 37.3643 157.478 38.0781 157.597 38.9815ZM164.758 36.1818V38.2273H158.846V36.1818H164.758ZM160.188 33.8295H162.911V42.983C162.911 43.2344 162.949 43.4304 163.026 43.571C163.103 43.7074 163.209 43.8033 163.346 43.8587C163.486 43.9141 163.648 43.9418 163.831 43.9418C163.959 43.9418 164.087 43.9311 164.215 43.9098C164.343 43.8842 164.441 43.8651 164.509 43.8523L164.937 45.8786C164.801 45.9212 164.609 45.9702 164.362 46.0256C164.115 46.0852 163.814 46.1214 163.461 46.1342C162.804 46.1598 162.229 46.0724 161.735 45.8722C161.245 45.6719 160.863 45.3608 160.591 44.9389C160.318 44.517 160.184 43.9844 160.188 43.3409V33.8295ZM166.532 46V36.1818H169.172V37.8949H169.274C169.453 37.2855 169.754 36.8253 170.175 36.5142C170.597 36.1989 171.083 36.0412 171.633 36.0412C171.769 36.0412 171.916 36.0497 172.074 36.0668C172.232 36.0838 172.37 36.1072 172.489 36.1371V38.5533C172.362 38.5149 172.185 38.4808 171.959 38.451C171.733 38.4212 171.526 38.4062 171.339 38.4062C170.938 38.4062 170.58 38.4936 170.265 38.6683C169.954 38.8388 169.707 39.0774 169.523 39.3842C169.344 39.6911 169.255 40.0447 169.255 40.4453V46H166.532ZM180.193 41.8196V36.1818H182.916V46H180.302V44.2166H180.2C179.978 44.7919 179.61 45.2543 179.094 45.6037C178.583 45.9531 177.958 46.1278 177.221 46.1278C176.565 46.1278 175.987 45.9787 175.489 45.6804C174.99 45.3821 174.6 44.9581 174.319 44.4084C174.042 43.8587 173.901 43.2003 173.897 42.4332V36.1818H176.62V41.9474C176.624 42.527 176.78 42.9851 177.087 43.3217C177.394 43.6584 177.805 43.8267 178.32 43.8267C178.649 43.8267 178.955 43.7521 179.241 43.603C179.526 43.4496 179.757 43.2237 179.931 42.9254C180.11 42.6271 180.198 42.2585 180.193 41.8196ZM189.531 46.1918C188.525 46.1918 187.66 45.9787 186.935 45.5526C186.215 45.1222 185.661 44.5256 185.273 43.7628C184.89 43 184.698 42.1222 184.698 41.1293C184.698 40.1236 184.892 39.2415 185.28 38.483C185.672 37.7202 186.228 37.1257 186.948 36.6996C187.668 36.2692 188.525 36.054 189.518 36.054C190.374 36.054 191.124 36.2095 191.768 36.5206C192.411 36.8317 192.92 37.2685 193.295 37.831C193.67 38.3935 193.877 39.054 193.915 39.8125H191.346C191.273 39.3224 191.082 38.9283 190.771 38.63C190.464 38.3274 190.061 38.1761 189.562 38.1761C189.141 38.1761 188.772 38.2912 188.457 38.5213C188.146 38.7472 187.903 39.0774 187.728 39.5121C187.553 39.9467 187.466 40.473 187.466 41.0909C187.466 41.7173 187.551 42.25 187.722 42.6889C187.896 43.1278 188.141 43.4624 188.457 43.6925C188.772 43.9226 189.141 44.0376 189.562 44.0376C189.874 44.0376 190.153 43.9737 190.4 43.8459C190.651 43.718 190.858 43.5327 191.02 43.2898C191.186 43.0426 191.295 42.7464 191.346 42.4013H193.915C193.873 43.1513 193.668 43.8118 193.302 44.3828C192.94 44.9496 192.439 45.3928 191.8 45.7124C191.161 46.032 190.404 46.1918 189.531 46.1918ZM188.891 45.9489H190.144L190.042 46.505C190.481 46.5732 190.839 46.7372 191.116 46.9972C191.397 47.2571 191.54 47.6108 191.544 48.0582C191.548 48.6932 191.254 49.1982 190.662 49.5732C190.07 49.9524 189.239 50.142 188.169 50.142L188.143 48.9276C188.68 48.9276 189.1 48.8615 189.403 48.7294C189.71 48.6016 189.869 48.4013 189.882 48.1286C189.891 47.8686 189.79 47.6705 189.582 47.5341C189.373 47.3977 189.047 47.3018 188.604 47.2464L188.891 45.9489ZM198.459 46.1854C197.832 46.1854 197.274 46.0767 196.784 45.8594C196.294 45.6378 195.906 45.3118 195.621 44.8814C195.339 44.4467 195.199 43.9055 195.199 43.2578C195.199 42.7124 195.299 42.2543 195.499 41.8835C195.699 41.5128 195.972 41.2145 196.317 40.9886C196.662 40.7628 197.055 40.5923 197.493 40.4773C197.937 40.3622 198.401 40.2812 198.887 40.2344C199.458 40.1747 199.918 40.1193 200.268 40.0682C200.617 40.0128 200.871 39.9318 201.028 39.8253C201.186 39.7187 201.265 39.5611 201.265 39.3523V39.3139C201.265 38.9091 201.137 38.5959 200.881 38.3743C200.63 38.1527 200.272 38.0419 199.807 38.0419C199.317 38.0419 198.927 38.1506 198.638 38.3679C198.348 38.581 198.156 38.8494 198.062 39.1733L195.544 38.9688C195.672 38.3722 195.923 37.8565 196.298 37.4219C196.673 36.983 197.157 36.6463 197.749 36.4119C198.346 36.1733 199.036 36.054 199.82 36.054C200.366 36.054 200.888 36.1179 201.386 36.2457C201.889 36.3736 202.334 36.5717 202.722 36.8402C203.114 37.1087 203.423 37.4538 203.649 37.8757C203.875 38.2933 203.988 38.794 203.988 39.3778V46H201.405V44.6385H201.329C201.171 44.9453 200.96 45.2159 200.696 45.4503C200.432 45.6804 200.114 45.8615 199.743 45.9936C199.373 46.1214 198.944 46.1854 198.459 46.1854ZM199.238 44.3061C199.639 44.3061 199.993 44.2273 200.3 44.0696C200.606 43.9077 200.847 43.6903 201.022 43.4176C201.197 43.1449 201.284 42.8359 201.284 42.4908V41.4489C201.199 41.5043 201.081 41.5554 200.932 41.6023C200.787 41.6449 200.623 41.6854 200.44 41.7237C200.257 41.7578 200.074 41.7898 199.89 41.8196C199.707 41.8452 199.541 41.8686 199.392 41.8899C199.072 41.9368 198.793 42.0114 198.555 42.1136C198.316 42.2159 198.131 42.3544 197.998 42.5291C197.866 42.6996 197.8 42.9126 197.8 43.1683C197.8 43.5391 197.934 43.8224 198.203 44.0185C198.476 44.2102 198.821 44.3061 199.238 44.3061ZM198.094 34.9737L196.579 34.9545C196.579 34.1406 196.78 33.5163 197.18 33.0817C197.585 32.647 198.077 32.4276 198.657 32.4233C198.955 32.4233 199.211 32.4723 199.424 32.5703C199.641 32.6641 199.835 32.7749 200.006 32.9027C200.18 33.0305 200.346 33.1435 200.504 33.2415C200.662 33.3352 200.832 33.3821 201.015 33.3821C201.263 33.3778 201.45 33.2862 201.578 33.1072C201.71 32.924 201.776 32.6854 201.776 32.3913L203.265 32.4361C203.257 33.2415 203.052 33.8636 202.652 34.3026C202.251 34.7372 201.763 34.9567 201.188 34.9609C200.868 34.9609 200.6 34.9141 200.383 34.8203C200.17 34.7223 199.982 34.6115 199.82 34.4879C199.658 34.3601 199.501 34.2472 199.347 34.1491C199.194 34.0511 199.021 34.0021 198.829 34.0021C198.608 34.0021 198.429 34.0895 198.292 34.2642C198.16 34.4389 198.094 34.6754 198.094 34.9737ZM210.536 46.1918C209.544 46.1918 208.685 45.9808 207.96 45.5589C207.24 45.1328 206.684 44.5405 206.292 43.782C205.9 43.0192 205.704 42.1349 205.704 41.1293C205.704 40.1151 205.9 39.2287 206.292 38.4702C206.684 37.7074 207.24 37.1151 207.96 36.6932C208.685 36.267 209.544 36.054 210.536 36.054C211.529 36.054 212.386 36.267 213.106 36.6932C213.83 37.1151 214.389 37.7074 214.781 38.4702C215.173 39.2287 215.369 40.1151 215.369 41.1293C215.369 42.1349 215.173 43.0192 214.781 43.782C214.389 44.5405 213.83 45.1328 213.106 45.5589C212.386 45.9808 211.529 46.1918 210.536 46.1918ZM210.549 44.0824C211.001 44.0824 211.378 43.9545 211.681 43.6989C211.983 43.4389 212.211 43.0852 212.365 42.6378C212.522 42.1903 212.601 41.6811 212.601 41.1101C212.601 40.5391 212.522 40.0298 212.365 39.5824C212.211 39.1349 211.983 38.7812 211.681 38.5213C211.378 38.2614 211.001 38.1314 210.549 38.1314C210.093 38.1314 209.71 38.2614 209.399 38.5213C209.092 38.7812 208.86 39.1349 208.702 39.5824C208.548 40.0298 208.472 40.5391 208.472 41.1101C208.472 41.6811 208.548 42.1903 208.702 42.6378C208.86 43.0852 209.092 43.4389 209.399 43.6989C209.71 43.9545 210.093 44.0824 210.549 44.0824Z" fill="white"/>
<path d="M45.8239 71.9091C45.8239 72.983 45.63 73.911 45.2422 74.6932C44.8544 75.4754 44.3224 76.0786 43.6463 76.5028C42.9702 76.9271 42.1979 77.1392 41.3295 77.1392C40.4612 77.1392 39.6889 76.9271 39.0128 76.5028C38.3366 76.0786 37.8047 75.4754 37.4169 74.6932C37.0291 73.911 36.8352 72.983 36.8352 71.9091C36.8352 70.8352 37.0291 69.9072 37.4169 69.125C37.8047 68.3428 38.3366 67.7396 39.0128 67.3153C39.6889 66.8911 40.4612 66.679 41.3295 66.679C42.1979 66.679 42.9702 66.8911 43.6463 67.3153C44.3224 67.7396 44.8544 68.3428 45.2422 69.125C45.63 69.9072 45.8239 70.8352 45.8239 71.9091ZM44.6307 71.9091C44.6307 71.0275 44.4832 70.2834 44.1882 69.6768C43.8965 69.0703 43.5005 68.6113 43 68.2997C42.5028 67.9882 41.946 67.8324 41.3295 67.8324C40.7131 67.8324 40.1546 67.9882 39.6541 68.2997C39.157 68.6113 38.7609 69.0703 38.4659 69.6768C38.1742 70.2834 38.0284 71.0275 38.0284 71.9091C38.0284 72.7907 38.1742 73.5348 38.4659 74.1413C38.7609 74.7479 39.157 75.2069 39.6541 75.5185C40.1546 75.83 40.7131 75.9858 41.3295 75.9858C41.946 75.9858 42.5028 75.83 43 75.5185C43.5005 75.2069 43.8965 74.7479 44.1882 74.1413C44.4832 73.5348 44.6307 72.7907 44.6307 71.9091ZM52.8487 72.4062V77H51.6754V69.3636H52.8089V70.5568H52.9084C53.0874 70.169 53.3591 69.8575 53.7237 69.6222C54.0883 69.3835 54.5589 69.2642 55.1357 69.2642C55.6527 69.2642 56.1051 69.3703 56.4929 69.5824C56.8807 69.7912 57.1823 70.1094 57.3977 70.5369C57.6132 70.9612 57.7209 71.4981 57.7209 72.1477V77H56.5476V72.2273C56.5476 71.6274 56.3918 71.16 56.0803 70.8253C55.7687 70.4872 55.3411 70.3182 54.7976 70.3182C54.4231 70.3182 54.0883 70.3994 53.7933 70.5618C53.5017 70.7242 53.2713 70.9612 53.1023 71.2727C52.9332 71.5843 52.8487 71.9621 52.8487 72.4062ZM59.8649 77V69.3636H61.0382V77H59.8649ZM59.9245 68.3295L61.1376 66.0227H62.5098L60.9586 68.3295H59.9245ZM69.4315 69.3636L66.6076 77H65.4144L62.5906 69.3636H63.8633L65.9712 75.4489H66.0508L68.1587 69.3636H69.4315ZM73.9084 77.1591C73.1726 77.1591 72.5379 76.9967 72.0043 76.6719C71.474 76.3438 71.0646 75.8864 70.7763 75.2997C70.4912 74.7098 70.3487 74.0237 70.3487 73.2415C70.3487 72.4593 70.4912 71.7699 70.7763 71.1733C71.0646 70.5734 71.4657 70.1061 71.9794 69.7713C72.4964 69.4332 73.0997 69.2642 73.7891 69.2642C74.1868 69.2642 74.5795 69.3305 74.9673 69.4631C75.3551 69.5956 75.7081 69.8111 76.0263 70.1094C76.3445 70.4044 76.598 70.7955 76.7869 71.2827C76.9759 71.7699 77.0703 72.3698 77.0703 73.0824V73.5795H71.1839V72.5653H75.8771C75.8771 72.1345 75.791 71.75 75.6186 71.4119C75.4496 71.0739 75.2076 70.8071 74.8928 70.6115C74.5812 70.416 74.2133 70.3182 73.7891 70.3182C73.3217 70.3182 72.9174 70.4342 72.576 70.6662C72.2379 70.8949 71.9777 71.1932 71.7955 71.5611C71.6132 71.929 71.522 72.3234 71.522 72.7443V73.4205C71.522 73.9972 71.6214 74.486 71.8203 74.8871C72.0225 75.2848 72.3026 75.5881 72.6605 75.7969C73.0185 76.0024 73.4344 76.1051 73.9084 76.1051C74.2166 76.1051 74.495 76.062 74.7436 75.9759C74.9955 75.8864 75.2126 75.7538 75.3949 75.5781C75.5772 75.3991 75.718 75.1771 75.8175 74.9119L76.951 75.2301C76.8317 75.6146 76.6312 75.9527 76.3494 76.2443C76.0677 76.5327 75.7197 76.758 75.3054 76.9205C74.8911 77.0795 74.4254 77.1591 73.9084 77.1591ZM80.0284 66.8182V77H78.8551V66.8182H80.0284ZM91.3251 79.8636V75.8267H91.2257C91.1395 75.9659 91.0169 76.1416 90.8578 76.3537C90.6987 76.5625 90.4717 76.7498 90.1767 76.9155C89.8817 77.0779 89.4889 77.1591 88.9984 77.1591C88.362 77.1591 87.8002 76.9983 87.313 76.6768C86.8258 76.352 86.4447 75.8946 86.1696 75.3047C85.8945 74.7114 85.7569 74.0104 85.7569 73.2017C85.7569 72.3996 85.8945 71.7036 86.1696 71.1136C86.4447 70.5237 86.8275 70.0679 87.318 69.7464C87.8085 69.425 88.3753 69.2642 89.0183 69.2642C89.5154 69.2642 89.9082 69.3471 90.1966 69.5128C90.4882 69.6752 90.7103 69.8608 90.8627 70.0696C91.0185 70.2751 91.1395 70.4441 91.2257 70.5767H91.3649V69.3636H92.4984V79.8636H91.3251ZM89.1575 76.1051C89.6281 76.1051 90.0259 75.9825 90.3507 75.7372C90.6755 75.4886 90.9224 75.1456 91.0914 74.7081C91.2605 74.2673 91.345 73.7585 91.345 73.1818C91.345 72.6117 91.2621 72.1129 91.0964 71.6854C90.9307 71.2545 90.6854 70.9197 90.3606 70.6811C90.0358 70.4392 89.6348 70.3182 89.1575 70.3182C88.6603 70.3182 88.246 70.4458 87.9146 70.701C87.5865 70.9529 87.3395 71.2959 87.1738 71.7301C87.0114 72.161 86.9302 72.6449 86.9302 73.1818C86.9302 73.7254 87.0131 74.2192 87.1788 74.6634C87.3478 75.1042 87.5964 75.4555 87.9245 75.7173C88.256 75.9759 88.667 76.1051 89.1575 76.1051ZM99.4586 73.8778V69.3636H100.632V77H99.4586V75.7074H99.3791C99.2001 76.0952 98.9217 76.425 98.5439 76.6967C98.166 76.9652 97.6887 77.0994 97.112 77.0994C96.6348 77.0994 96.2105 76.995 95.8393 76.7862C95.4681 76.5741 95.1764 76.2559 94.9643 75.8317C94.7522 75.4041 94.6461 74.8655 94.6461 74.2159V69.3636H95.8194V74.1364C95.8194 74.6932 95.9752 75.1373 96.2868 75.4688C96.6016 75.8002 97.0027 75.9659 97.4899 75.9659C97.7815 75.9659 98.0782 75.8913 98.3798 75.7422C98.6847 75.593 98.9399 75.3643 99.1454 75.0561C99.3542 74.7479 99.4586 74.3551 99.4586 73.8778ZM105.983 77.1591C105.247 77.1591 104.612 76.9967 104.078 76.6719C103.548 76.3438 103.139 75.8864 102.85 75.2997C102.565 74.7098 102.423 74.0237 102.423 73.2415C102.423 72.4593 102.565 71.7699 102.85 71.1733C103.139 70.5734 103.54 70.1061 104.054 69.7713C104.571 69.4332 105.174 69.2642 105.863 69.2642C106.261 69.2642 106.654 69.3305 107.042 69.4631C107.429 69.5956 107.782 69.8111 108.1 70.1094C108.419 70.4044 108.672 70.7955 108.861 71.2827C109.05 71.7699 109.145 72.3698 109.145 73.0824V73.5795H103.258V72.5653H107.951C107.951 72.1345 107.865 71.75 107.693 71.4119C107.524 71.0739 107.282 70.8071 106.967 70.6115C106.655 70.416 106.288 70.3182 105.863 70.3182C105.396 70.3182 104.992 70.4342 104.65 70.6662C104.312 70.8949 104.052 71.1932 103.87 71.5611C103.687 71.929 103.596 72.3234 103.596 72.7443V73.4205C103.596 73.9972 103.696 74.486 103.895 74.8871C104.097 75.2848 104.377 75.5881 104.735 75.7969C105.093 76.0024 105.509 76.1051 105.983 76.1051C106.291 76.1051 106.569 76.062 106.818 75.9759C107.07 75.8864 107.287 75.7538 107.469 75.5781C107.651 75.3991 107.792 75.1771 107.892 74.9119L109.025 75.2301C108.906 75.6146 108.705 75.9527 108.424 76.2443C108.142 76.5327 107.794 76.758 107.38 76.9205C106.965 77.0795 106.5 77.1591 105.983 77.1591ZM121.111 69.3636L118.287 77H117.094L114.27 69.3636H115.543L117.651 75.4489H117.73L119.838 69.3636H121.111ZM125.489 77.1591C124.799 77.1591 124.194 76.995 123.674 76.6669C123.157 76.3388 122.753 75.8797 122.461 75.2898C122.173 74.6998 122.028 74.0104 122.028 73.2216C122.028 72.4261 122.173 71.7318 122.461 71.1385C122.753 70.5452 123.157 70.0845 123.674 69.7564C124.194 69.4283 124.799 69.2642 125.489 69.2642C126.178 69.2642 126.781 69.4283 127.298 69.7564C127.819 70.0845 128.223 70.5452 128.511 71.1385C128.803 71.7318 128.949 72.4261 128.949 73.2216C128.949 74.0104 128.803 74.6998 128.511 75.2898C128.223 75.8797 127.819 76.3388 127.298 76.6669C126.781 76.995 126.178 77.1591 125.489 77.1591ZM125.489 76.1051C126.012 76.1051 126.443 75.9709 126.781 75.7024C127.119 75.4339 127.37 75.081 127.532 74.6435C127.694 74.206 127.776 73.732 127.776 73.2216C127.776 72.7112 127.694 72.2356 127.532 71.7947C127.37 71.3539 127.119 70.9976 126.781 70.7259C126.443 70.4541 126.012 70.3182 125.489 70.3182C124.965 70.3182 124.534 70.4541 124.196 70.7259C123.858 70.9976 123.608 71.3539 123.445 71.7947C123.283 72.2356 123.202 72.7112 123.202 73.2216C123.202 73.732 123.283 74.206 123.445 74.6435C123.608 75.081 123.858 75.4339 124.196 75.7024C124.534 75.9709 124.965 76.1051 125.489 76.1051ZM133.842 77.1591C133.126 77.1591 132.51 76.9901 131.993 76.652C131.476 76.3139 131.078 75.8482 130.8 75.255C130.521 74.6617 130.382 73.9839 130.382 73.2216C130.382 72.446 130.524 71.7616 130.809 71.1683C131.098 70.5717 131.499 70.1061 132.013 69.7713C132.53 69.4332 133.133 69.2642 133.822 69.2642C134.359 69.2642 134.843 69.3636 135.274 69.5625C135.705 69.7614 136.058 70.0398 136.333 70.3977C136.608 70.7557 136.779 71.1733 136.845 71.6506H135.672C135.582 71.3026 135.383 70.9943 135.075 70.7259C134.77 70.4541 134.359 70.3182 133.842 70.3182C133.385 70.3182 132.984 70.4375 132.639 70.6761C132.298 70.9115 132.031 71.2446 131.839 71.6754C131.65 72.103 131.555 72.6051 131.555 73.1818C131.555 73.7718 131.648 74.2855 131.834 74.723C132.023 75.1605 132.288 75.5002 132.629 75.7422C132.974 75.9841 133.378 76.1051 133.842 76.1051C134.147 76.1051 134.424 76.0521 134.672 75.946C134.921 75.84 135.131 75.6875 135.304 75.4886C135.476 75.2898 135.599 75.0511 135.672 74.7727H136.845C136.779 75.2235 136.615 75.6295 136.353 75.9908C136.094 76.3487 135.751 76.6338 135.324 76.8459C134.899 77.0547 134.406 77.1591 133.842 77.1591ZM141.762 77.1591C141.026 77.1591 140.391 76.9967 139.858 76.6719C139.327 76.3438 138.918 75.8864 138.63 75.2997C138.345 74.7098 138.202 74.0237 138.202 73.2415C138.202 72.4593 138.345 71.7699 138.63 71.1733C138.918 70.5734 139.319 70.1061 139.833 69.7713C140.35 69.4332 140.953 69.2642 141.643 69.2642C142.04 69.2642 142.433 69.3305 142.821 69.4631C143.209 69.5956 143.562 69.8111 143.88 70.1094C144.198 70.4044 144.452 70.7955 144.64 71.2827C144.829 71.7699 144.924 72.3698 144.924 73.0824V73.5795H139.037V72.5653H143.731C143.731 72.1345 143.644 71.75 143.472 71.4119C143.303 71.0739 143.061 70.8071 142.746 70.6115C142.435 70.416 142.067 70.3182 141.643 70.3182C141.175 70.3182 140.771 70.4342 140.43 70.6662C140.091 70.8949 139.831 71.1932 139.649 71.5611C139.467 71.929 139.376 72.3234 139.376 72.7443V73.4205C139.376 73.9972 139.475 74.486 139.674 74.8871C139.876 75.2848 140.156 75.5881 140.514 75.7969C140.872 76.0024 141.288 76.1051 141.762 76.1051C142.07 76.1051 142.349 76.062 142.597 75.9759C142.849 75.8864 143.066 75.7538 143.248 75.5781C143.431 75.3991 143.572 75.1771 143.671 74.9119L144.805 75.2301C144.685 75.6146 144.485 75.9527 144.203 76.2443C143.921 76.5327 143.573 76.758 143.159 76.9205C142.745 77.0795 142.279 77.1591 141.762 77.1591ZM142.617 68.4489L141.583 67.0568L140.549 68.4489H139.435V68.3693L141.046 66.3011H142.12L143.731 68.3693V68.4489H142.617ZM153.748 77.1591C153.032 77.1591 152.416 76.9901 151.899 76.652C151.382 76.3139 150.984 75.8482 150.706 75.255C150.427 74.6617 150.288 73.9839 150.288 73.2216C150.288 72.446 150.431 71.7616 150.716 71.1683C151.004 70.5717 151.405 70.1061 151.919 69.7713C152.436 69.4332 153.039 69.2642 153.729 69.2642C154.265 69.2642 154.749 69.3636 155.18 69.5625C155.611 69.7614 155.964 70.0398 156.239 70.3977C156.514 70.7557 156.685 71.1733 156.751 71.6506H155.578C155.488 71.3026 155.29 70.9943 154.981 70.7259C154.676 70.4541 154.265 70.3182 153.748 70.3182C153.291 70.3182 152.89 70.4375 152.545 70.6761C152.204 70.9115 151.937 71.2446 151.745 71.6754C151.556 72.103 151.461 72.6051 151.461 73.1818C151.461 73.7718 151.554 74.2855 151.74 74.723C151.929 75.1605 152.194 75.5002 152.535 75.7422C152.88 75.9841 153.284 76.1051 153.748 76.1051C154.053 76.1051 154.33 76.0521 154.579 75.946C154.827 75.84 155.038 75.6875 155.21 75.4886C155.382 75.2898 155.505 75.0511 155.578 74.7727H156.751C156.685 75.2235 156.521 75.6295 156.259 75.9908C156.001 76.3487 155.657 76.6338 155.23 76.8459C154.806 77.0547 154.312 77.1591 153.748 77.1591ZM159.64 66.8182V77H158.466V66.8182H159.64ZM161.789 77V69.3636H162.962V77H161.789ZM162.385 68.0909C162.157 68.0909 161.959 68.013 161.794 67.8572C161.631 67.7015 161.55 67.5142 161.55 67.2955C161.55 67.0767 161.631 66.8894 161.794 66.7337C161.959 66.5779 162.157 66.5 162.385 66.5C162.614 66.5 162.81 66.5779 162.972 66.7337C163.138 66.8894 163.221 67.0767 163.221 67.2955C163.221 67.5142 163.138 67.7015 162.972 67.8572C162.81 68.013 162.614 68.0909 162.385 68.0909ZM168.213 77.1591C167.497 77.1591 166.881 76.9901 166.364 76.652C165.847 76.3139 165.449 75.8482 165.171 75.255C164.892 74.6617 164.753 73.9839 164.753 73.2216C164.753 72.446 164.896 71.7616 165.181 71.1683C165.469 70.5717 165.87 70.1061 166.384 69.7713C166.901 69.4332 167.504 69.2642 168.193 69.2642C168.73 69.2642 169.214 69.3636 169.645 69.5625C170.076 69.7614 170.429 70.0398 170.704 70.3977C170.979 70.7557 171.15 71.1733 171.216 71.6506H170.043C169.953 71.3026 169.754 70.9943 169.446 70.7259C169.141 70.4541 168.73 70.3182 168.213 70.3182C167.756 70.3182 167.355 70.4375 167.01 70.6761C166.669 70.9115 166.402 71.2446 166.21 71.6754C166.021 72.103 165.926 72.6051 165.926 73.1818C165.926 73.7718 166.019 74.2855 166.205 74.723C166.394 75.1605 166.659 75.5002 167 75.7422C167.345 75.9841 167.749 76.1051 168.213 76.1051C168.518 76.1051 168.795 76.0521 169.044 75.946C169.292 75.84 169.503 75.6875 169.675 75.4886C169.847 75.2898 169.97 75.0511 170.043 74.7727H171.216C171.15 75.2235 170.986 75.6295 170.724 75.9908C170.465 76.3487 170.122 76.6338 169.695 76.8459C169.271 77.0547 168.777 77.1591 168.213 77.1591ZM176.034 77.1591C175.344 77.1591 174.739 76.995 174.219 76.6669C173.702 76.3388 173.298 75.8797 173.006 75.2898C172.718 74.6998 172.573 74.0104 172.573 73.2216C172.573 72.4261 172.718 71.7318 173.006 71.1385C173.298 70.5452 173.702 70.0845 174.219 69.7564C174.739 69.4283 175.344 69.2642 176.034 69.2642C176.723 69.2642 177.326 69.4283 177.843 69.7564C178.364 70.0845 178.768 70.5452 179.056 71.1385C179.348 71.7318 179.494 72.4261 179.494 73.2216C179.494 74.0104 179.348 74.6998 179.056 75.2898C178.768 75.8797 178.364 76.3388 177.843 76.6669C177.326 76.995 176.723 77.1591 176.034 77.1591ZM176.034 76.1051C176.557 76.1051 176.988 75.9709 177.326 75.7024C177.664 75.4339 177.914 75.081 178.077 74.6435C178.239 74.206 178.32 73.732 178.32 73.2216C178.32 72.7112 178.239 72.2356 178.077 71.7947C177.914 71.3539 177.664 70.9976 177.326 70.7259C176.988 70.4541 176.557 70.3182 176.034 70.3182C175.51 70.3182 175.079 70.4541 174.741 70.7259C174.403 70.9976 174.153 71.3539 173.99 71.7947C173.828 72.2356 173.747 72.7112 173.747 73.2216C173.747 73.732 173.828 74.206 173.99 74.6435C174.153 75.081 174.403 75.4339 174.741 75.7024C175.079 75.9709 175.51 76.1051 176.034 76.1051ZM186.097 73.8778V69.3636H187.271V77H186.097V75.7074H186.018C185.839 76.0952 185.56 76.425 185.183 76.6967C184.805 76.9652 184.327 77.0994 183.751 77.0994C183.273 77.0994 182.849 76.995 182.478 76.7862C182.107 76.5741 181.815 76.2559 181.603 75.8317C181.391 75.4041 181.285 74.8655 181.285 74.2159V69.3636H182.458V74.1364C182.458 74.6932 182.614 75.1373 182.925 75.4688C183.24 75.8002 183.641 75.9659 184.129 75.9659C184.42 75.9659 184.717 75.8913 185.018 75.7422C185.323 75.593 185.579 75.3643 185.784 75.0561C185.993 74.7479 186.097 74.3551 186.097 73.8778ZM198.766 71.0739L197.712 71.3722C197.646 71.1965 197.548 71.0258 197.419 70.8601C197.293 70.6911 197.121 70.5518 196.902 70.4425C196.683 70.3331 196.403 70.2784 196.062 70.2784C195.594 70.2784 195.205 70.3861 194.893 70.6016C194.585 70.8137 194.431 71.0838 194.431 71.4119C194.431 71.7036 194.537 71.9339 194.749 72.103C194.961 72.272 195.293 72.4129 195.743 72.5256L196.877 72.804C197.56 72.9697 198.068 73.2232 198.403 73.5646C198.738 73.9027 198.905 74.3385 198.905 74.8722C198.905 75.3097 198.779 75.7008 198.528 76.0455C198.279 76.3902 197.931 76.6619 197.483 76.8608C197.036 77.0597 196.516 77.1591 195.922 77.1591C195.144 77.1591 194.499 76.9901 193.988 76.652C193.478 76.3139 193.155 75.8201 193.019 75.1705L194.133 74.892C194.239 75.303 194.439 75.6113 194.734 75.8168C195.032 76.0223 195.422 76.125 195.903 76.125C196.449 76.125 196.884 76.009 197.205 75.777C197.53 75.5417 197.692 75.2599 197.692 74.9318C197.692 74.6667 197.599 74.4446 197.414 74.2656C197.228 74.0833 196.943 73.9474 196.559 73.858L195.286 73.5597C194.587 73.3939 194.073 73.1371 193.745 72.7891C193.42 72.4377 193.258 71.9986 193.258 71.4716C193.258 71.0407 193.379 70.6596 193.621 70.3281C193.866 69.9967 194.199 69.7365 194.62 69.5476C195.044 69.3587 195.525 69.2642 196.062 69.2642C196.817 69.2642 197.411 69.4299 197.841 69.7614C198.276 70.0928 198.584 70.5303 198.766 71.0739ZM203.873 77.1591C203.137 77.1591 202.503 76.9967 201.969 76.6719C201.439 76.3438 201.029 75.8864 200.741 75.2997C200.456 74.7098 200.314 74.0237 200.314 73.2415C200.314 72.4593 200.456 71.7699 200.741 71.1733C201.029 70.5734 201.431 70.1061 201.944 69.7713C202.461 69.4332 203.065 69.2642 203.754 69.2642C204.152 69.2642 204.544 69.3305 204.932 69.4631C205.32 69.5956 205.673 69.8111 205.991 70.1094C206.309 70.4044 206.563 70.7955 206.752 71.2827C206.941 71.7699 207.035 72.3698 207.035 73.0824V73.5795H201.149V72.5653H205.842C205.842 72.1345 205.756 71.75 205.583 71.4119C205.414 71.0739 205.172 70.8071 204.858 70.6115C204.546 70.416 204.178 70.3182 203.754 70.3182C203.287 70.3182 202.882 70.4342 202.541 70.6662C202.203 70.8949 201.943 71.1932 201.76 71.5611C201.578 71.929 201.487 72.3234 201.487 72.7443V73.4205C201.487 73.9972 201.586 74.486 201.785 74.8871C201.987 75.2848 202.267 75.5881 202.625 75.7969C202.983 76.0024 203.399 76.1051 203.873 76.1051C204.181 76.1051 204.46 76.062 204.708 75.9759C204.96 75.8864 205.177 75.7538 205.36 75.5781C205.542 75.3991 205.683 75.1771 205.782 74.9119L206.916 75.2301C206.797 75.6146 206.596 75.9527 206.314 76.2443C206.033 76.5327 205.685 76.758 205.27 76.9205C204.856 77.0795 204.39 77.1591 203.873 77.1591ZM215.959 77.1591C215.223 77.1591 214.589 76.9967 214.055 76.6719C213.525 76.3438 213.115 75.8864 212.827 75.2997C212.542 74.7098 212.4 74.0237 212.4 73.2415C212.4 72.4593 212.542 71.7699 212.827 71.1733C213.115 70.5734 213.516 70.1061 214.03 69.7713C214.547 69.4332 215.15 69.2642 215.84 69.2642C216.238 69.2642 216.63 69.3305 217.018 69.4631C217.406 69.5956 217.759 69.8111 218.077 70.1094C218.395 70.4044 218.649 70.7955 218.838 71.2827C219.027 71.7699 219.121 72.3698 219.121 73.0824V73.5795H213.235V72.5653H217.928C217.928 72.1345 217.842 71.75 217.669 71.4119C217.5 71.0739 217.258 70.8071 216.944 70.6115C216.632 70.416 216.264 70.3182 215.84 70.3182C215.373 70.3182 214.968 70.4342 214.627 70.6662C214.289 70.8949 214.029 71.1932 213.846 71.5611C213.664 71.929 213.573 72.3234 213.573 72.7443V73.4205C213.573 73.9972 213.672 74.486 213.871 74.8871C214.073 75.2848 214.353 75.5881 214.711 75.7969C215.069 76.0024 215.485 76.1051 215.959 76.1051C216.267 76.1051 216.546 76.062 216.794 75.9759C217.046 75.8864 217.263 75.7538 217.446 75.5781C217.628 75.3991 217.769 75.1771 217.868 74.9119L219.002 75.2301C218.882 75.6146 218.682 75.9527 218.4 76.2443C218.118 76.5327 217.77 76.758 217.356 76.9205C216.942 77.0795 216.476 77.1591 215.959 77.1591ZM222.079 72.4062V77H220.906V69.3636H222.039V70.5568H222.139C222.318 70.169 222.59 69.8575 222.954 69.6222C223.319 69.3835 223.789 69.2642 224.366 69.2642C224.883 69.2642 225.336 69.3703 225.723 69.5824C226.111 69.7912 226.413 70.1094 226.628 70.5369C226.844 70.9612 226.951 71.4981 226.951 72.1477V77H225.778V72.2273C225.778 71.6274 225.622 71.16 225.311 70.8253C224.999 70.4872 224.572 70.3182 224.028 70.3182C223.654 70.3182 223.319 70.3994 223.024 70.5618C222.732 70.7242 222.502 70.9612 222.333 71.2727C222.164 71.5843 222.079 71.9621 222.079 72.4062ZM232.198 77.1591C231.482 77.1591 230.865 76.9901 230.348 76.652C229.831 76.3139 229.433 75.8482 229.155 75.255C228.877 74.6617 228.737 73.9839 228.737 73.2216C228.737 72.446 228.88 71.7616 229.165 71.1683C229.453 70.5717 229.854 70.1061 230.368 69.7713C230.885 69.4332 231.488 69.2642 232.178 69.2642C232.715 69.2642 233.199 69.3636 233.629 69.5625C234.06 69.7614 234.413 70.0398 234.688 70.3977C234.963 70.7557 235.134 71.1733 235.2 71.6506H234.027C233.938 71.3026 233.739 70.9943 233.431 70.7259C233.126 70.4541 232.715 70.3182 232.198 70.3182C231.74 70.3182 231.339 70.4375 230.994 70.6761C230.653 70.9115 230.386 71.2446 230.194 71.6754C230.005 72.103 229.911 72.6051 229.911 73.1818C229.911 73.7718 230.003 74.2855 230.189 74.723C230.378 75.1605 230.643 75.5002 230.985 75.7422C231.329 75.9841 231.734 76.1051 232.198 76.1051C232.503 76.1051 232.779 76.0521 233.028 75.946C233.276 75.84 233.487 75.6875 233.659 75.4886C233.832 75.2898 233.954 75.0511 234.027 74.7727H235.2C235.134 75.2235 234.97 75.6295 234.708 75.9908C234.45 76.3487 234.107 76.6338 233.679 76.8459C233.255 77.0547 232.761 77.1591 232.198 77.1591ZM240.018 77.1591C239.329 77.1591 238.724 76.995 238.203 76.6669C237.686 76.3388 237.282 75.8797 236.99 75.2898C236.702 74.6998 236.558 74.0104 236.558 73.2216C236.558 72.4261 236.702 71.7318 236.99 71.1385C237.282 70.5452 237.686 70.0845 238.203 69.7564C238.724 69.4283 239.329 69.2642 240.018 69.2642C240.707 69.2642 241.311 69.4283 241.828 69.7564C242.348 70.0845 242.752 70.5452 243.041 71.1385C243.332 71.7318 243.478 72.4261 243.478 73.2216C243.478 74.0104 243.332 74.6998 243.041 75.2898C242.752 75.8797 242.348 76.3388 241.828 76.6669C241.311 76.995 240.707 77.1591 240.018 77.1591ZM240.018 76.1051C240.542 76.1051 240.972 75.9709 241.311 75.7024C241.649 75.4339 241.899 75.081 242.061 74.6435C242.224 74.206 242.305 73.732 242.305 73.2216C242.305 72.7112 242.224 72.2356 242.061 71.7947C241.899 71.3539 241.649 70.9976 241.311 70.7259C240.972 70.4541 240.542 70.3182 240.018 70.3182C239.494 70.3182 239.063 70.4541 238.725 70.7259C238.387 70.9976 238.137 71.3539 237.975 71.7947C237.812 72.2356 237.731 72.7112 237.731 73.2216C237.731 73.732 237.812 74.206 237.975 74.6435C238.137 75.081 238.387 75.4339 238.725 75.7024C239.063 75.9709 239.494 76.1051 240.018 76.1051ZM246.442 72.4062V77H245.269V69.3636H246.403V70.5568H246.502C246.681 70.169 246.953 69.8575 247.317 69.6222C247.682 69.3835 248.153 69.2642 248.729 69.2642C249.246 69.2642 249.699 69.3703 250.087 69.5824C250.474 69.7912 250.776 70.1094 250.991 70.5369C251.207 70.9612 251.315 71.4981 251.315 72.1477V77H250.141V72.2273C250.141 71.6274 249.986 71.16 249.674 70.8253C249.362 70.4872 248.935 70.3182 248.391 70.3182C248.017 70.3182 247.682 70.3994 247.387 70.5618C247.095 70.7242 246.865 70.9612 246.696 71.2727C246.527 71.5843 246.442 71.9621 246.442 72.4062ZM256.78 69.3636V70.358H252.822V69.3636H256.78ZM253.976 67.5341H255.149V74.8125C255.149 75.1439 255.197 75.3925 255.293 75.5582C255.393 75.7206 255.519 75.83 255.671 75.8864C255.827 75.9394 255.991 75.9659 256.163 75.9659C256.292 75.9659 256.398 75.9593 256.481 75.946C256.564 75.9295 256.631 75.9162 256.68 75.9062L256.919 76.9602C256.839 76.9901 256.728 77.0199 256.586 77.0497C256.443 77.0829 256.263 77.0994 256.044 77.0994C255.712 77.0994 255.388 77.0282 255.069 76.8857C254.755 76.7431 254.493 76.526 254.284 76.2344C254.078 75.9427 253.976 75.5748 253.976 75.1307V67.5341ZM258.545 77V69.3636H259.678V70.517H259.758C259.897 70.1392 260.149 69.8326 260.513 69.5973C260.878 69.362 261.289 69.2443 261.746 69.2443C261.832 69.2443 261.94 69.246 262.069 69.2493C262.199 69.2526 262.296 69.2576 262.363 69.2642V70.4574C262.323 70.4474 262.232 70.4325 262.089 70.4126C261.95 70.3894 261.803 70.3778 261.647 70.3778C261.276 70.3778 260.944 70.4557 260.653 70.6115C260.364 70.764 260.135 70.9761 259.966 71.2479C259.801 71.5163 259.718 71.8229 259.718 72.1676V77H258.545ZM266.001 77.179C265.517 77.179 265.078 77.0878 264.683 76.9055C264.289 76.7199 263.976 76.4531 263.744 76.1051C263.512 75.7538 263.396 75.3295 263.396 74.8324C263.396 74.3949 263.482 74.0402 263.654 73.7685C263.826 73.4934 264.057 73.2779 264.345 73.1222C264.634 72.9664 264.952 72.8504 265.3 72.7741C265.651 72.6946 266.004 72.6316 266.359 72.5852C266.823 72.5256 267.199 72.4808 267.487 72.451C267.779 72.4179 267.991 72.3632 268.124 72.2869C268.259 72.2107 268.327 72.0781 268.327 71.8892V71.8494C268.327 71.3589 268.193 70.9777 267.925 70.706C267.66 70.4342 267.257 70.2983 266.717 70.2983C266.156 70.2983 265.717 70.4209 265.399 70.6662C265.081 70.9115 264.857 71.1733 264.728 71.4517L263.614 71.054C263.813 70.59 264.078 70.2287 264.41 69.9702C264.745 69.7083 265.109 69.526 265.504 69.4233C265.901 69.3172 266.292 69.2642 266.677 69.2642C266.922 69.2642 267.204 69.294 267.522 69.3537C267.844 69.41 268.153 69.5277 268.452 69.7067C268.753 69.8857 269.004 70.1558 269.202 70.517C269.401 70.8783 269.501 71.3622 269.501 71.9688V77H268.327V75.9659H268.268C268.188 76.1316 268.056 76.3089 267.87 76.4979C267.684 76.6868 267.438 76.8475 267.129 76.9801C266.821 77.1127 266.445 77.179 266.001 77.179ZM266.18 76.125C266.644 76.125 267.035 76.0339 267.353 75.8516C267.674 75.6693 267.916 75.4339 268.079 75.1456C268.245 74.8572 268.327 74.554 268.327 74.2358V73.1619C268.278 73.2216 268.168 73.2763 267.999 73.326C267.834 73.3724 267.641 73.4138 267.423 73.4503C267.207 73.4834 266.997 73.5133 266.791 73.5398C266.589 73.563 266.425 73.5829 266.299 73.5994C265.994 73.6392 265.709 73.7038 265.444 73.7933C265.182 73.8795 264.97 74.0104 264.808 74.1861C264.648 74.3584 264.569 74.5937 264.569 74.892C264.569 75.2997 264.72 75.608 265.021 75.8168C265.326 76.0223 265.712 76.125 266.18 76.125ZM278.781 77.1591C278.046 77.1591 277.411 76.9967 276.877 76.6719C276.347 76.3438 275.938 75.8864 275.649 75.2997C275.364 74.7098 275.222 74.0237 275.222 73.2415C275.222 72.4593 275.364 71.7699 275.649 71.1733C275.938 70.5734 276.339 70.1061 276.852 69.7713C277.369 69.4332 277.973 69.2642 278.662 69.2642C279.06 69.2642 279.453 69.3305 279.84 69.4631C280.228 69.5956 280.581 69.8111 280.899 70.1094C281.218 70.4044 281.471 70.7955 281.66 71.2827C281.849 71.7699 281.943 72.3698 281.943 73.0824V73.5795H276.057V72.5653H280.75C280.75 72.1345 280.664 71.75 280.492 71.4119C280.323 71.0739 280.081 70.8071 279.766 70.6115C279.454 70.416 279.086 70.3182 278.662 70.3182C278.195 70.3182 277.79 70.4342 277.449 70.6662C277.111 70.8949 276.851 71.1932 276.669 71.5611C276.486 71.929 276.395 72.3234 276.395 72.7443V73.4205C276.395 73.9972 276.494 74.486 276.693 74.8871C276.896 75.2848 277.176 75.5881 277.534 75.7969C277.892 76.0024 278.307 76.1051 278.781 76.1051C279.09 76.1051 279.368 76.062 279.617 75.9759C279.869 75.8864 280.086 75.7538 280.268 75.5781C280.45 75.3991 280.591 75.1771 280.691 74.9119L281.824 75.2301C281.705 75.6146 281.504 75.9527 281.222 76.2443C280.941 76.5327 280.593 76.758 280.178 76.9205C279.764 77.0795 279.298 77.1591 278.781 77.1591ZM283.728 77V69.3636H284.862V70.5568H284.961C285.12 70.1491 285.377 69.8326 285.732 69.6072C286.086 69.3786 286.512 69.2642 287.009 69.2642C287.513 69.2642 287.932 69.3786 288.267 69.6072C288.605 69.8326 288.869 70.1491 289.058 70.5568H289.137C289.333 70.1624 289.626 69.8492 290.017 69.6172C290.408 69.3819 290.877 69.2642 291.424 69.2642C292.107 69.2642 292.665 69.478 293.1 69.9055C293.534 70.3298 293.751 70.991 293.751 71.8892V77H292.578V71.8892C292.578 71.3258 292.423 70.9231 292.115 70.6811C291.807 70.4392 291.444 70.3182 291.026 70.3182C290.49 70.3182 290.074 70.4806 289.779 70.8054C289.484 71.1269 289.336 71.5346 289.336 72.0284V77H288.143V71.7699C288.143 71.3357 288.002 70.986 287.72 70.7209C287.439 70.4524 287.076 70.3182 286.632 70.3182C286.327 70.3182 286.042 70.3994 285.776 70.5618C285.515 70.7242 285.302 70.9496 285.14 71.2379C284.981 71.523 284.901 71.8527 284.901 72.2273V77H283.728ZM302.936 77.1591C302.22 77.1591 301.604 76.9901 301.086 76.652C300.569 76.3139 300.172 75.8482 299.893 75.255C299.615 74.6617 299.476 73.9839 299.476 73.2216C299.476 72.446 299.618 71.7616 299.903 71.1683C300.192 70.5717 300.593 70.1061 301.106 69.7713C301.623 69.4332 302.227 69.2642 302.916 69.2642C303.453 69.2642 303.937 69.3636 304.368 69.5625C304.799 69.7614 305.152 70.0398 305.427 70.3977C305.702 70.7557 305.872 71.1733 305.939 71.6506H304.765C304.676 71.3026 304.477 70.9943 304.169 70.7259C303.864 70.4541 303.453 70.3182 302.936 70.3182C302.479 70.3182 302.077 70.4375 301.733 70.6761C301.391 70.9115 301.125 71.2446 300.932 71.6754C300.743 72.103 300.649 72.6051 300.649 73.1818C300.649 73.7718 300.742 74.2855 300.927 74.723C301.116 75.1605 301.381 75.5002 301.723 75.7422C302.068 75.9841 302.472 76.1051 302.936 76.1051C303.241 76.1051 303.518 76.0521 303.766 75.946C304.015 75.84 304.225 75.6875 304.398 75.4886C304.57 75.2898 304.693 75.0511 304.765 74.7727H305.939C305.872 75.2235 305.708 75.6295 305.447 75.9908C305.188 76.3487 304.845 76.6338 304.417 76.8459C303.993 77.0547 303.499 77.1591 302.936 77.1591ZM310.756 77.1591C310.067 77.1591 309.462 76.995 308.942 76.6669C308.425 76.3388 308.02 75.8797 307.729 75.2898C307.44 74.6998 307.296 74.0104 307.296 73.2216C307.296 72.4261 307.44 71.7318 307.729 71.1385C308.02 70.5452 308.425 70.0845 308.942 69.7564C309.462 69.4283 310.067 69.2642 310.756 69.2642C311.446 69.2642 312.049 69.4283 312.566 69.7564C313.086 70.0845 313.491 70.5452 313.779 71.1385C314.071 71.7318 314.216 72.4261 314.216 73.2216C314.216 74.0104 314.071 74.6998 313.779 75.2898C313.491 75.8797 313.086 76.3388 312.566 76.6669C312.049 76.995 311.446 77.1591 310.756 77.1591ZM310.756 76.1051C311.28 76.1051 311.711 75.9709 312.049 75.7024C312.387 75.4339 312.637 75.081 312.8 74.6435C312.962 74.206 313.043 73.732 313.043 73.2216C313.043 72.7112 312.962 72.2356 312.8 71.7947C312.637 71.3539 312.387 70.9976 312.049 70.7259C311.711 70.4541 311.28 70.3182 310.756 70.3182C310.233 70.3182 309.802 70.4541 309.464 70.7259C309.126 70.9976 308.875 71.3539 308.713 71.7947C308.55 72.2356 308.469 72.7112 308.469 73.2216C308.469 73.732 308.55 74.206 308.713 74.6435C308.875 75.081 309.126 75.4339 309.464 75.7024C309.802 75.9709 310.233 76.1051 310.756 76.1051ZM317.181 72.4062V77H316.007V69.3636H317.141V70.5568H317.24C317.419 70.169 317.691 69.8575 318.056 69.6222C318.42 69.3835 318.891 69.2642 319.468 69.2642C319.985 69.2642 320.437 69.3703 320.825 69.5824C321.213 69.7912 321.514 70.1094 321.73 70.5369C321.945 70.9612 322.053 71.4981 322.053 72.1477V77H320.88V72.2273C320.88 71.6274 320.724 71.16 320.412 70.8253C320.101 70.4872 319.673 70.3182 319.13 70.3182C318.755 70.3182 318.42 70.3994 318.125 70.5618C317.834 70.7242 317.603 70.9612 317.434 71.2727C317.265 71.5843 317.181 71.9621 317.181 72.4062ZM329.606 71.0739L328.552 71.3722C328.486 71.1965 328.388 71.0258 328.259 70.8601C328.133 70.6911 327.96 70.5518 327.742 70.4425C327.523 70.3331 327.243 70.2784 326.901 70.2784C326.434 70.2784 326.045 70.3861 325.733 70.6016C325.425 70.8137 325.271 71.0838 325.271 71.4119C325.271 71.7036 325.377 71.9339 325.589 72.103C325.801 72.272 326.133 72.4129 326.583 72.5256L327.717 72.804C328.4 72.9697 328.908 73.2232 329.243 73.5646C329.578 73.9027 329.745 74.3385 329.745 74.8722C329.745 75.3097 329.619 75.7008 329.367 76.0455C329.119 76.3902 328.771 76.6619 328.323 76.8608C327.876 77.0597 327.356 77.1591 326.762 77.1591C325.983 77.1591 325.339 76.9901 324.828 76.652C324.318 76.3139 323.995 75.8201 323.859 75.1705L324.972 74.892C325.079 75.303 325.279 75.6113 325.574 75.8168C325.872 76.0223 326.262 76.125 326.742 76.125C327.289 76.125 327.723 76.009 328.045 75.777C328.37 75.5417 328.532 75.2599 328.532 74.9318C328.532 74.6667 328.439 74.4446 328.254 74.2656C328.068 74.0833 327.783 73.9474 327.399 73.858L326.126 73.5597C325.427 73.3939 324.913 73.1371 324.585 72.7891C324.26 72.4377 324.097 71.9986 324.097 71.4716C324.097 71.0407 324.218 70.6596 324.46 70.3281C324.706 69.9967 325.039 69.7365 325.46 69.5476C325.884 69.3587 326.365 69.2642 326.901 69.2642C327.657 69.2642 328.25 69.4299 328.681 69.7614C329.115 70.0928 329.424 70.5303 329.606 71.0739ZM334.832 69.3636V70.358H330.875V69.3636H334.832ZM332.028 67.5341H333.202V74.8125C333.202 75.1439 333.25 75.3925 333.346 75.5582C333.445 75.7206 333.571 75.83 333.724 75.8864C333.879 75.9394 334.044 75.9659 334.216 75.9659C334.345 75.9659 334.451 75.9593 334.534 75.946C334.617 75.9295 334.683 75.9162 334.733 75.9062L334.972 76.9602C334.892 76.9901 334.781 77.0199 334.638 77.0497C334.496 77.0829 334.315 77.0994 334.097 77.0994C333.765 77.0994 333.44 77.0282 333.122 76.8857C332.807 76.7431 332.545 76.526 332.337 76.2344C332.131 75.9427 332.028 75.5748 332.028 75.1307V67.5341ZM336.597 77V69.3636H337.731V70.517H337.81C337.95 70.1392 338.201 69.8326 338.566 69.5973C338.931 69.362 339.342 69.2443 339.799 69.2443C339.885 69.2443 339.993 69.246 340.122 69.2493C340.251 69.2526 340.349 69.2576 340.415 69.2642V70.4574C340.376 70.4474 340.285 70.4325 340.142 70.4126C340.003 70.3894 339.855 70.3778 339.7 70.3778C339.328 70.3778 338.997 70.4557 338.705 70.6115C338.417 70.764 338.188 70.9761 338.019 71.2479C337.853 71.5163 337.771 71.8229 337.771 72.1676V77H336.597ZM346.619 73.8778V69.3636H347.792V77H346.619V75.7074H346.539C346.36 76.0952 346.082 76.425 345.704 76.6967C345.326 76.9652 344.849 77.0994 344.272 77.0994C343.795 77.0994 343.371 76.995 342.999 76.7862C342.628 76.5741 342.337 76.2559 342.124 75.8317C341.912 75.4041 341.806 74.8655 341.806 74.2159V69.3636H342.98V74.1364C342.98 74.6932 343.135 75.1373 343.447 75.4688C343.762 75.8002 344.163 75.9659 344.65 75.9659C344.942 75.9659 345.238 75.8913 345.54 75.7422C345.845 75.593 346.1 75.3643 346.306 75.0561C346.514 74.7479 346.619 74.3551 346.619 73.8778ZM353.043 77.1591C352.327 77.1591 351.711 76.9901 351.194 76.652C350.677 76.3139 350.279 75.8482 350.001 75.255C349.722 74.6617 349.583 73.9839 349.583 73.2216C349.583 72.446 349.726 71.7616 350.011 71.1683C350.299 70.5717 350.7 70.1061 351.214 69.7713C351.731 69.4332 352.334 69.2642 353.023 69.2642C353.56 69.2642 354.044 69.3636 354.475 69.5625C354.906 69.7614 355.259 70.0398 355.534 70.3977C355.809 70.7557 355.98 71.1733 356.046 71.6506H354.873C354.783 71.3026 354.585 70.9943 354.276 70.7259C353.971 70.4541 353.56 70.3182 353.043 70.3182C352.586 70.3182 352.185 70.4375 351.84 70.6761C351.499 70.9115 351.232 71.2446 351.04 71.6754C350.851 72.103 350.756 72.6051 350.756 73.1818C350.756 73.7718 350.849 74.2855 351.035 74.723C351.224 75.1605 351.489 75.5002 351.83 75.7422C352.175 75.9841 352.579 76.1051 353.043 76.1051C353.348 76.1051 353.625 76.0521 353.874 75.946C354.122 75.84 354.333 75.6875 354.505 75.4886C354.677 75.2898 354.8 75.0511 354.873 74.7727H356.046C355.98 75.2235 355.816 75.6295 355.554 75.9908C355.295 76.3487 354.952 76.6338 354.525 76.8459C354.101 77.0547 353.607 77.1591 353.043 77.1591ZM352.487 76.9602H353.461L353.381 77.358C353.64 77.3977 353.877 77.5054 354.092 77.6811C354.308 77.8601 354.415 78.1435 354.415 78.5312C354.415 78.9588 354.238 79.3068 353.884 79.5753C353.532 79.8471 353.013 79.983 352.327 79.983L352.288 79.2074C352.596 79.2074 352.851 79.1577 353.053 79.0582C353.259 78.9621 353.362 78.7997 353.362 78.571C353.362 78.3423 353.277 78.1866 353.108 78.1037C352.939 78.0208 352.665 77.9645 352.288 77.9347L352.487 76.9602ZM360.009 77.179C359.525 77.179 359.085 77.0878 358.691 76.9055C358.297 76.7199 357.983 76.4531 357.751 76.1051C357.519 75.7538 357.403 75.3295 357.403 74.8324C357.403 74.3949 357.49 74.0402 357.662 73.7685C357.834 73.4934 358.065 73.2779 358.353 73.1222C358.641 72.9664 358.96 72.8504 359.308 72.7741C359.659 72.6946 360.012 72.6316 360.366 72.5852C360.83 72.5256 361.207 72.4808 361.495 72.451C361.787 72.4179 361.999 72.3632 362.131 72.2869C362.267 72.2107 362.335 72.0781 362.335 71.8892V71.8494C362.335 71.3589 362.201 70.9777 361.933 70.706C361.667 70.4342 361.265 70.2983 360.724 70.2983C360.164 70.2983 359.725 70.4209 359.407 70.6662C359.089 70.9115 358.865 71.1733 358.736 71.4517L357.622 71.054C357.821 70.59 358.086 70.2287 358.418 69.9702C358.752 69.7083 359.117 69.526 359.511 69.4233C359.909 69.3172 360.3 69.2642 360.685 69.2642C360.93 69.2642 361.212 69.294 361.53 69.3537C361.851 69.41 362.161 69.5277 362.46 69.7067C362.761 69.8857 363.011 70.1558 363.21 70.517C363.409 70.8783 363.509 71.3622 363.509 71.9688V77H362.335V75.9659H362.276C362.196 76.1316 362.063 76.3089 361.878 76.4979C361.692 76.6868 361.445 76.8475 361.137 76.9801C360.829 77.1127 360.453 77.179 360.009 77.179ZM360.188 76.125C360.652 76.125 361.043 76.0339 361.361 75.8516C361.682 75.6693 361.924 75.4339 362.087 75.1456C362.252 74.8572 362.335 74.554 362.335 74.2358V73.1619C362.286 73.2216 362.176 73.2763 362.007 73.326C361.841 73.3724 361.649 73.4138 361.43 73.4503C361.215 73.4834 361.004 73.5133 360.799 73.5398C360.597 73.563 360.433 73.5829 360.307 73.5994C360.002 73.6392 359.717 73.7038 359.452 73.7933C359.19 73.8795 358.978 74.0104 358.815 74.1861C358.656 74.3584 358.577 74.5937 358.577 74.892C358.577 75.2997 358.728 75.608 359.029 75.8168C359.334 76.0223 359.72 76.125 360.188 76.125ZM359.233 68.4489L358.318 68.4091C358.318 67.902 358.462 67.4877 358.751 67.1662C359.042 66.8414 359.402 66.679 359.83 66.679C360.018 66.679 360.186 66.7121 360.332 66.7784C360.478 66.8414 360.617 66.9143 360.749 66.9972C360.882 67.08 361.018 67.1546 361.157 67.2209C361.299 67.2839 361.46 67.3153 361.639 67.3153C361.828 67.3153 361.987 67.2424 362.116 67.0966C362.249 66.9474 362.315 66.7685 362.315 66.5597L363.21 66.6392C363.21 67.1562 363.064 67.5672 362.773 67.8722C362.484 68.1771 362.126 68.3295 361.699 68.3295C361.47 68.3295 361.281 68.2981 361.132 68.2351C360.983 68.1688 360.85 68.0942 360.734 68.0114C360.618 67.9285 360.496 67.8556 360.366 67.7926C360.237 67.7263 360.078 67.6932 359.889 67.6932C359.7 67.6932 359.543 67.7678 359.417 67.9169C359.294 68.0627 359.233 68.2401 359.233 68.4489ZM368.752 77.1591C368.063 77.1591 367.458 76.995 366.938 76.6669C366.421 76.3388 366.016 75.8797 365.725 75.2898C365.436 74.6998 365.292 74.0104 365.292 73.2216C365.292 72.4261 365.436 71.7318 365.725 71.1385C366.016 70.5452 366.421 70.0845 366.938 69.7564C367.458 69.4283 368.063 69.2642 368.752 69.2642C369.442 69.2642 370.045 69.4283 370.562 69.7564C371.082 70.0845 371.487 70.5452 371.775 71.1385C372.067 71.7318 372.213 72.4261 372.213 73.2216C372.213 74.0104 372.067 74.6998 371.775 75.2898C371.487 75.8797 371.082 76.3388 370.562 76.6669C370.045 76.995 369.442 77.1591 368.752 77.1591ZM368.752 76.1051C369.276 76.1051 369.707 75.9709 370.045 75.7024C370.383 75.4339 370.633 75.081 370.796 74.6435C370.958 74.206 371.039 73.732 371.039 73.2216C371.039 72.7112 370.958 72.2356 370.796 71.7947C370.633 71.3539 370.383 70.9976 370.045 70.7259C369.707 70.4541 369.276 70.3182 368.752 70.3182C368.229 70.3182 367.798 70.4541 367.46 70.7259C367.122 70.9976 366.871 71.3539 366.709 71.7947C366.547 72.2356 366.465 72.7112 366.465 73.2216C366.465 73.732 366.547 74.206 366.709 74.6435C366.871 75.081 367.122 75.4339 367.46 75.7024C367.798 75.9709 368.229 76.1051 368.752 76.1051ZM375.754 75.608L375.674 76.1449C375.618 76.5227 375.531 76.9271 375.415 77.358C375.303 77.7888 375.185 78.1948 375.062 78.576C374.94 78.9571 374.839 79.2604 374.759 79.4858H373.864C373.907 79.2737 373.964 78.9936 374.033 78.6456C374.103 78.2976 374.173 77.9081 374.242 77.4773C374.315 77.0497 374.375 76.6122 374.421 76.1648L374.481 75.608H375.754ZM388.109 69.3636L385.285 77H384.092L381.268 69.3636H382.541L384.649 75.4489H384.729L386.836 69.3636H388.109ZM392.487 77.1591C391.797 77.1591 391.192 76.995 390.672 76.6669C390.155 76.3388 389.751 75.8797 389.459 75.2898C389.171 74.6998 389.026 74.0104 389.026 73.2216C389.026 72.4261 389.171 71.7318 389.459 71.1385C389.751 70.5452 390.155 70.0845 390.672 69.7564C391.192 69.4283 391.797 69.2642 392.487 69.2642C393.176 69.2642 393.779 69.4283 394.296 69.7564C394.817 70.0845 395.221 70.5452 395.509 71.1385C395.801 71.7318 395.947 72.4261 395.947 73.2216C395.947 74.0104 395.801 74.6998 395.509 75.2898C395.221 75.8797 394.817 76.3388 394.296 76.6669C393.779 76.995 393.176 77.1591 392.487 77.1591ZM392.487 76.1051C393.01 76.1051 393.441 75.9709 393.779 75.7024C394.117 75.4339 394.368 75.081 394.53 74.6435C394.692 74.206 394.774 73.732 394.774 73.2216C394.774 72.7112 394.692 72.2356 394.53 71.7947C394.368 71.3539 394.117 70.9976 393.779 70.7259C393.441 70.4541 393.01 70.3182 392.487 70.3182C391.963 70.3182 391.532 70.4541 391.194 70.7259C390.856 70.9976 390.606 71.3539 390.443 71.7947C390.281 72.2356 390.2 72.7112 390.2 73.2216C390.2 73.732 390.281 74.206 390.443 74.6435C390.606 75.081 390.856 75.4339 391.194 75.7024C391.532 75.9709 391.963 76.1051 392.487 76.1051ZM398.911 66.8182V77H397.738V66.8182H398.911ZM404.381 69.3636V70.358H400.424V69.3636H404.381ZM401.577 67.5341H402.751V74.8125C402.751 75.1439 402.799 75.3925 402.895 75.5582C402.994 75.7206 403.12 75.83 403.273 75.8864C403.428 75.9394 403.592 75.9659 403.765 75.9659C403.894 75.9659 404 75.9593 404.083 75.946C404.166 75.9295 404.232 75.9162 404.282 75.9062L404.52 76.9602C404.441 76.9901 404.33 77.0199 404.187 77.0497C404.045 77.0829 403.864 77.0994 403.645 77.0994C403.314 77.0994 402.989 77.0282 402.671 76.8857C402.356 76.7431 402.094 76.526 401.885 76.2344C401.68 75.9427 401.577 75.5748 401.577 75.1307V67.5341ZM409.266 77.1591C408.53 77.1591 407.895 76.9967 407.362 76.6719C406.831 76.3438 406.422 75.8864 406.134 75.2997C405.849 74.7098 405.706 74.0237 405.706 73.2415C405.706 72.4593 405.849 71.7699 406.134 71.1733C406.422 70.5734 406.823 70.1061 407.337 69.7713C407.854 69.4332 408.457 69.2642 409.146 69.2642C409.544 69.2642 409.937 69.3305 410.325 69.4631C410.713 69.5956 411.066 69.8111 411.384 70.1094C411.702 70.4044 411.955 70.7955 412.144 71.2827C412.333 71.7699 412.428 72.3698 412.428 73.0824V73.5795H406.541V72.5653H411.235C411.235 72.1345 411.148 71.75 410.976 71.4119C410.807 71.0739 410.565 70.8071 410.25 70.6115C409.939 70.416 409.571 70.3182 409.146 70.3182C408.679 70.3182 408.275 70.4342 407.933 70.6662C407.595 70.8949 407.335 71.1932 407.153 71.5611C406.971 71.929 406.879 72.3234 406.879 72.7443V73.4205C406.879 73.9972 406.979 74.486 407.178 74.8871C407.38 75.2848 407.66 75.5881 408.018 75.7969C408.376 76.0024 408.792 76.1051 409.266 76.1051C409.574 76.1051 409.852 76.062 410.101 75.9759C410.353 75.8864 410.57 75.7538 410.752 75.5781C410.935 75.3991 411.075 75.1771 411.175 74.9119L412.308 75.2301C412.189 75.6146 411.989 75.9527 411.707 76.2443C411.425 76.5327 411.077 76.758 410.663 76.9205C410.249 77.0795 409.783 77.1591 409.266 77.1591ZM39.321 98.179C38.8371 98.179 38.398 98.0878 38.0036 97.9055C37.6091 97.7199 37.2959 97.4531 37.0639 97.1051C36.8319 96.7538 36.7159 96.3295 36.7159 95.8324C36.7159 95.3949 36.8021 95.0402 36.9744 94.7685C37.1468 94.4934 37.3771 94.2779 37.6655 94.1222C37.9538 93.9664 38.272 93.8504 38.62 93.7741C38.9714 93.6946 39.3243 93.6316 39.679 93.5852C40.143 93.5256 40.5192 93.4808 40.8075 93.451C41.0992 93.4179 41.3113 93.3632 41.4439 93.2869C41.5798 93.2107 41.6477 93.0781 41.6477 92.8892V92.8494C41.6477 92.3589 41.5135 91.9777 41.245 91.706C40.9799 91.4342 40.5772 91.2983 40.0369 91.2983C39.4768 91.2983 39.0376 91.4209 38.7195 91.6662C38.4013 91.9115 38.1776 92.1733 38.0483 92.4517L36.9347 92.054C37.1335 91.59 37.3987 91.2287 37.7301 90.9702C38.0649 90.7083 38.4295 90.526 38.8239 90.4233C39.2216 90.3172 39.6127 90.2642 39.9972 90.2642C40.2424 90.2642 40.5241 90.294 40.8423 90.3537C41.1638 90.41 41.4737 90.5277 41.772 90.7067C42.0736 90.8857 42.3239 91.1558 42.5227 91.517C42.7216 91.8783 42.821 92.3622 42.821 92.9688V98H41.6477V96.9659H41.5881C41.5085 97.1316 41.3759 97.3089 41.1903 97.4979C41.0047 97.6868 40.7578 97.8475 40.4496 97.9801C40.1413 98.1127 39.7652 98.179 39.321 98.179ZM39.5 97.125C39.964 97.125 40.3551 97.0339 40.6733 96.8516C40.9948 96.6693 41.2367 96.4339 41.3991 96.1456C41.5649 95.8572 41.6477 95.554 41.6477 95.2358V94.1619C41.598 94.2216 41.4886 94.2763 41.3196 94.326C41.1539 94.3724 40.9616 94.4138 40.7429 94.4503C40.5275 94.4834 40.317 94.5133 40.1115 94.5398C39.9093 94.563 39.7453 94.5829 39.6193 94.5994C39.3144 94.6392 39.0294 94.7038 38.7642 94.7933C38.5024 94.8795 38.2902 95.0104 38.1278 95.1861C37.9688 95.3584 37.8892 95.5937 37.8892 95.892C37.8892 96.2997 38.04 96.608 38.3416 96.8168C38.6465 97.0223 39.0327 97.125 39.5 97.125ZM50.3716 92.0739L49.3176 92.3722C49.2514 92.1965 49.1536 92.0258 49.0243 91.8601C48.8984 91.6911 48.726 91.5518 48.5073 91.4425C48.2885 91.3331 48.0085 91.2784 47.6671 91.2784C47.1998 91.2784 46.8103 91.3861 46.4988 91.6016C46.1905 91.8137 46.0364 92.0838 46.0364 92.4119C46.0364 92.7036 46.1425 92.9339 46.3546 93.103C46.5667 93.272 46.8981 93.4129 47.3489 93.5256L48.4824 93.804C49.1652 93.9697 49.6739 94.2232 50.0087 94.5646C50.3435 94.9027 50.5108 95.3385 50.5108 95.8722C50.5108 96.3097 50.3849 96.7008 50.133 97.0455C49.8844 97.3902 49.5364 97.6619 49.089 97.8608C48.6415 98.0597 48.1212 98.1591 47.5279 98.1591C46.749 98.1591 46.1043 97.9901 45.5939 97.652C45.0835 97.3139 44.7604 96.8201 44.6245 96.1705L45.7381 95.892C45.8442 96.303 46.0447 96.6113 46.3397 96.8168C46.638 97.0223 47.0274 97.125 47.508 97.125C48.0549 97.125 48.4891 97.009 48.8105 96.777C49.1354 96.5417 49.2978 96.2599 49.2978 95.9318C49.2978 95.6667 49.205 95.4446 49.0194 95.2656C48.8337 95.0833 48.5487 94.9474 48.1642 94.858L46.8915 94.5597C46.1922 94.3939 45.6784 94.1371 45.3503 93.7891C45.0255 93.4377 44.8631 92.9986 44.8631 92.4716C44.8631 92.0407 44.9841 91.6596 45.226 91.3281C45.4713 90.9967 45.8044 90.7365 46.2253 90.5476C46.6496 90.3587 47.1301 90.2642 47.6671 90.2642C48.4228 90.2642 49.016 90.4299 49.4469 90.7614C49.8811 91.0928 50.1893 91.5303 50.3716 92.0739ZM57.6861 92.0739L56.6321 92.3722C56.5658 92.1965 56.468 92.0258 56.3388 91.8601C56.2128 91.6911 56.0405 91.5518 55.8217 91.4425C55.603 91.3331 55.3229 91.2784 54.9815 91.2784C54.5142 91.2784 54.1248 91.3861 53.8132 91.6016C53.505 91.8137 53.3509 92.0838 53.3509 92.4119C53.3509 92.7036 53.4569 92.9339 53.669 93.103C53.8812 93.272 54.2126 93.4129 54.6634 93.5256L55.7969 93.804C56.4796 93.9697 56.9884 94.2232 57.3232 94.5646C57.6579 94.9027 57.8253 95.3385 57.8253 95.8722C57.8253 96.3097 57.6993 96.7008 57.4474 97.0455C57.1989 97.3902 56.8509 97.6619 56.4034 97.8608C55.956 98.0597 55.4356 98.1591 54.8423 98.1591C54.0634 98.1591 53.4188 97.9901 52.9084 97.652C52.398 97.3139 52.0748 96.8201 51.9389 96.1705L53.0526 95.892C53.1586 96.303 53.3591 96.6113 53.6541 96.8168C53.9524 97.0223 54.3419 97.125 54.8224 97.125C55.3693 97.125 55.8035 97.009 56.125 96.777C56.4498 96.5417 56.6122 96.2599 56.6122 95.9318C56.6122 95.6667 56.5194 95.4446 56.3338 95.2656C56.1482 95.0833 55.8632 94.9474 55.4787 94.858L54.206 94.5597C53.5066 94.3939 52.9929 94.1371 52.6648 93.7891C52.34 93.4377 52.1776 92.9986 52.1776 92.4716C52.1776 92.0407 52.2985 91.6596 52.5405 91.3281C52.7857 90.9967 53.1188 90.7365 53.5398 90.5476C53.964 90.3587 54.4446 90.2642 54.9815 90.2642C55.7372 90.2642 56.3305 90.4299 56.7614 90.7614C57.1955 91.0928 57.5038 91.5303 57.6861 92.0739ZM59.5914 98V90.3636H60.7647V98H59.5914ZM60.188 89.0909C59.9593 89.0909 59.7621 89.013 59.5964 88.8572C59.434 88.7015 59.3528 88.5142 59.3528 88.2955C59.3528 88.0767 59.434 87.8894 59.5964 87.7337C59.7621 87.5779 59.9593 87.5 60.188 87.5C60.4167 87.5 60.6123 87.5779 60.7747 87.7337C60.9404 87.8894 61.0233 88.0767 61.0233 88.2955C61.0233 88.5142 60.9404 88.7015 60.7747 88.8572C60.6123 89.013 60.4167 89.0909 60.188 89.0909ZM62.9137 98V90.3636H64.0472V91.5568H64.1467C64.3058 91.1491 64.5626 90.8326 64.9173 90.6072C65.2719 90.3786 65.6978 90.2642 66.195 90.2642C66.6987 90.2642 67.118 90.3786 67.4528 90.6072C67.7908 90.8326 68.0543 91.1491 68.2433 91.5568H68.3228C68.5183 91.1624 68.8117 90.8492 69.2028 90.6172C69.5939 90.3819 70.0629 90.2642 70.6097 90.2642C71.2925 90.2642 71.851 90.478 72.2852 90.9055C72.7193 91.3298 72.9364 91.991 72.9364 92.8892V98H71.7631V92.8892C71.7631 92.3258 71.609 91.9231 71.3008 91.6811C70.9925 91.4392 70.6296 91.3182 70.212 91.3182C69.6751 91.3182 69.2591 91.4806 68.9641 91.8054C68.6692 92.1269 68.5217 92.5346 68.5217 93.0284V98H67.3285V92.7699C67.3285 92.3357 67.1876 91.986 66.9059 91.7209C66.6242 91.4524 66.2612 91.3182 65.8171 91.3182C65.5122 91.3182 65.2272 91.3994 64.962 91.5618C64.7002 91.7242 64.488 91.9496 64.3256 92.2379C64.1665 92.523 64.087 92.8527 64.087 93.2273V98H62.9137ZM84.2294 100.864V96.8267H84.13C84.0438 96.9659 83.9212 97.1416 83.7621 97.3537C83.603 97.5625 83.3759 97.7498 83.081 97.9155C82.786 98.0779 82.3932 98.1591 81.9027 98.1591C81.2663 98.1591 80.7045 97.9983 80.2173 97.6768C79.7301 97.352 79.349 96.8946 79.0739 96.3047C78.7988 95.7114 78.6612 95.0104 78.6612 94.2017C78.6612 93.3996 78.7988 92.7036 79.0739 92.1136C79.349 91.5237 79.7318 91.0679 80.2223 90.7464C80.7128 90.425 81.2796 90.2642 81.9226 90.2642C82.4197 90.2642 82.8125 90.3471 83.1009 90.5128C83.3925 90.6752 83.6146 90.8608 83.767 91.0696C83.9228 91.2751 84.0438 91.4441 84.13 91.5767H84.2692V90.3636H85.4027V100.864H84.2294ZM82.0618 97.1051C82.5324 97.1051 82.9302 96.9825 83.255 96.7372C83.5798 96.4886 83.8267 96.1456 83.9957 95.7081C84.1648 95.2673 84.2493 94.7585 84.2493 94.1818C84.2493 93.6117 84.1664 93.1129 84.0007 92.6854C83.835 92.2545 83.5897 91.9197 83.2649 91.6811C82.9401 91.4392 82.5391 91.3182 82.0618 91.3182C81.5646 91.3182 81.1503 91.4458 80.8189 91.701C80.4908 91.9529 80.2438 92.2959 80.0781 92.7301C79.9157 93.161 79.8345 93.6449 79.8345 94.1818C79.8345 94.7254 79.9174 95.2192 80.0831 95.6634C80.2521 96.1042 80.5007 96.4555 80.8288 96.7173C81.1603 96.9759 81.5713 97.1051 82.0618 97.1051ZM92.3629 94.8778V90.3636H93.5362V98H92.3629V96.7074H92.2834C92.1044 97.0952 91.826 97.425 91.4482 97.6967C91.0703 97.9652 90.593 98.0994 90.0163 98.0994C89.5391 98.0994 89.1148 97.995 88.7436 97.7862C88.3724 97.5741 88.0807 97.2559 87.8686 96.8317C87.6565 96.4041 87.5504 95.8655 87.5504 95.2159V90.3636H88.7237V95.1364C88.7237 95.6932 88.8795 96.1373 89.1911 96.4688C89.5059 96.8002 89.907 96.9659 90.3942 96.9659C90.6858 96.9659 90.9825 96.8913 91.2841 96.7422C91.589 96.593 91.8442 96.3643 92.0497 96.0561C92.2585 95.7479 92.3629 95.3551 92.3629 94.8778ZM98.8869 98.1591C98.1511 98.1591 97.5164 97.9967 96.9828 97.6719C96.4525 97.3438 96.0431 96.8864 95.7548 96.2997C95.4698 95.7098 95.3272 95.0237 95.3272 94.2415C95.3272 93.4593 95.4698 92.7699 95.7548 92.1733C96.0431 91.5734 96.4442 91.1061 96.9579 90.7713C97.475 90.4332 98.0782 90.2642 98.7676 90.2642C99.1653 90.2642 99.5581 90.3305 99.9458 90.4631C100.334 90.5956 100.687 90.8111 101.005 91.1094C101.323 91.4044 101.577 91.7955 101.765 92.2827C101.954 92.7699 102.049 93.3698 102.049 94.0824V94.5795H96.1625V93.5653H100.856C100.856 93.1345 100.769 92.75 100.597 92.4119C100.428 92.0739 100.186 91.8071 99.8713 91.6115C99.5597 91.416 99.1918 91.3182 98.7676 91.3182C98.3002 91.3182 97.8959 91.4342 97.5545 91.6662C97.2164 91.8949 96.9563 92.1932 96.774 92.5611C96.5917 92.929 96.5005 93.3234 96.5005 93.7443V94.4205C96.5005 94.9972 96.6 95.486 96.7988 95.8871C97.001 96.2848 97.2811 96.5881 97.639 96.7969C97.997 97.0024 98.4129 97.1051 98.8869 97.1051C99.1951 97.1051 99.4735 97.062 99.7221 96.9759C99.974 96.8864 100.191 96.7538 100.373 96.5781C100.556 96.3991 100.697 96.1771 100.796 95.9119L101.93 96.2301C101.81 96.6146 101.61 96.9527 101.328 97.2443C101.046 97.5327 100.698 97.758 100.284 97.9205C99.8696 98.0795 99.4039 98.1591 98.8869 98.1591ZM111.172 90.3636V91.358H107.055V90.3636H111.172ZM108.288 98V89.3097C108.288 88.8722 108.391 88.5076 108.596 88.2159C108.802 87.9242 109.069 87.7055 109.397 87.5597C109.725 87.4138 110.071 87.3409 110.436 87.3409C110.724 87.3409 110.96 87.3641 111.142 87.4105C111.324 87.4569 111.46 87.5 111.55 87.5398L111.211 88.554C111.152 88.5341 111.069 88.5092 110.963 88.4794C110.86 88.4496 110.724 88.4347 110.555 88.4347C110.167 88.4347 109.887 88.5324 109.715 88.728C109.546 88.9235 109.461 89.2102 109.461 89.5881V98H108.288ZM115.604 98.1591C114.914 98.1591 114.31 97.995 113.789 97.6669C113.272 97.3388 112.868 96.8797 112.576 96.2898C112.288 95.6998 112.144 95.0104 112.144 94.2216C112.144 93.4261 112.288 92.7318 112.576 92.1385C112.868 91.5452 113.272 91.0845 113.789 90.7564C114.31 90.4283 114.914 90.2642 115.604 90.2642C116.293 90.2642 116.896 90.4283 117.414 90.7564C117.934 91.0845 118.338 91.5452 118.627 92.1385C118.918 92.7318 119.064 93.4261 119.064 94.2216C119.064 95.0104 118.918 95.6998 118.627 96.2898C118.338 96.8797 117.934 97.3388 117.414 97.6669C116.896 97.995 116.293 98.1591 115.604 98.1591ZM115.604 97.1051C116.128 97.1051 116.558 96.9709 116.896 96.7024C117.235 96.4339 117.485 96.081 117.647 95.6435C117.81 95.206 117.891 94.732 117.891 94.2216C117.891 93.7112 117.81 93.2356 117.647 92.7947C117.485 92.3539 117.235 91.9976 116.896 91.7259C116.558 91.4541 116.128 91.3182 115.604 91.3182C115.08 91.3182 114.649 91.4541 114.311 91.7259C113.973 91.9976 113.723 92.3539 113.561 92.7947C113.398 93.2356 113.317 93.7112 113.317 94.2216C113.317 94.732 113.398 95.206 113.561 95.6435C113.723 96.081 113.973 96.4339 114.311 96.7024C114.649 96.9709 115.08 97.1051 115.604 97.1051ZM120.855 98V90.3636H121.989V91.517H122.068C122.207 91.1392 122.459 90.8326 122.824 90.5973C123.188 90.362 123.599 90.2443 124.057 90.2443C124.143 90.2443 124.251 90.246 124.38 90.2493C124.509 90.2526 124.607 90.2576 124.673 90.2642V91.4574C124.634 91.4474 124.542 91.4325 124.4 91.4126C124.261 91.3894 124.113 91.3778 123.957 91.3778C123.586 91.3778 123.255 91.4557 122.963 91.6115C122.675 91.764 122.446 91.9761 122.277 92.2479C122.111 92.5163 122.028 92.8229 122.028 93.1676V98H120.855ZM133.104 98.1591C132.388 98.1591 131.771 97.9901 131.254 97.652C130.737 97.3139 130.34 96.8482 130.061 96.255C129.783 95.6617 129.644 94.9839 129.644 94.2216C129.644 93.446 129.786 92.7616 130.071 92.1683C130.36 91.5717 130.761 91.1061 131.274 90.7713C131.791 90.4332 132.395 90.2642 133.084 90.2642C133.621 90.2642 134.105 90.3636 134.536 90.5625C134.967 90.7614 135.32 91.0398 135.595 91.3977C135.87 91.7557 136.04 92.1733 136.107 92.6506H134.933C134.844 92.3026 134.645 91.9943 134.337 91.7259C134.032 91.4541 133.621 91.3182 133.104 91.3182C132.646 91.3182 132.245 91.4375 131.901 91.6761C131.559 91.9115 131.293 92.2446 131.1 92.6754C130.911 93.103 130.817 93.6051 130.817 94.1818C130.817 94.7718 130.91 95.2855 131.095 95.723C131.284 96.1605 131.549 96.5002 131.891 96.7422C132.235 96.9841 132.64 97.1051 133.104 97.1051C133.409 97.1051 133.686 97.0521 133.934 96.946C134.183 96.84 134.393 96.6875 134.566 96.4886C134.738 96.2898 134.86 96.0511 134.933 95.7727H136.107C136.04 96.2235 135.876 96.6295 135.615 96.9908C135.356 97.3487 135.013 97.6338 134.585 97.8459C134.161 98.0547 133.667 98.1591 133.104 98.1591ZM140.924 98.1591C140.235 98.1591 139.63 97.995 139.11 97.6669C138.593 97.3388 138.188 96.8797 137.896 96.2898C137.608 95.6998 137.464 95.0104 137.464 94.2216C137.464 93.4261 137.608 92.7318 137.896 92.1385C138.188 91.5452 138.593 91.0845 139.11 90.7564C139.63 90.4283 140.235 90.2642 140.924 90.2642C141.614 90.2642 142.217 90.4283 142.734 90.7564C143.254 91.0845 143.659 91.5452 143.947 92.1385C144.239 92.7318 144.384 93.4261 144.384 94.2216C144.384 95.0104 144.239 95.6998 143.947 96.2898C143.659 96.8797 143.254 97.3388 142.734 97.6669C142.217 97.995 141.614 98.1591 140.924 98.1591ZM140.924 97.1051C141.448 97.1051 141.879 96.9709 142.217 96.7024C142.555 96.4339 142.805 96.081 142.968 95.6435C143.13 95.206 143.211 94.732 143.211 94.2216C143.211 93.7112 143.13 93.2356 142.968 92.7947C142.805 92.3539 142.555 91.9976 142.217 91.7259C141.879 91.4541 141.448 91.3182 140.924 91.3182C140.401 91.3182 139.97 91.4541 139.632 91.7259C139.294 91.9976 139.043 92.3539 138.881 92.7947C138.718 93.2356 138.637 93.7112 138.637 94.2216C138.637 94.732 138.718 95.206 138.881 95.6435C139.043 96.081 139.294 96.4339 139.632 96.7024C139.97 96.9709 140.401 97.1051 140.924 97.1051ZM147.349 93.4062V98H146.175V90.3636H147.309V91.5568H147.408C147.587 91.169 147.859 90.8575 148.224 90.6222C148.588 90.3835 149.059 90.2642 149.636 90.2642C150.153 90.2642 150.605 90.3703 150.993 90.5824C151.381 90.7912 151.682 91.1094 151.898 91.5369C152.113 91.9612 152.221 92.4981 152.221 93.1477V98H151.048V93.2273C151.048 92.6274 150.892 92.16 150.58 91.8253C150.269 91.4872 149.841 91.3182 149.298 91.3182C148.923 91.3182 148.588 91.3994 148.293 91.5618C148.002 91.7242 147.771 91.9612 147.602 92.2727C147.433 92.5843 147.349 92.9621 147.349 93.4062ZM157.467 98.1591C156.751 98.1591 156.135 97.9901 155.618 97.652C155.101 97.3139 154.703 96.8482 154.425 96.255C154.146 95.6617 154.007 94.9839 154.007 94.2216C154.007 93.446 154.149 92.7616 154.434 92.1683C154.723 91.5717 155.124 91.1061 155.638 90.7713C156.155 90.4332 156.758 90.2642 157.447 90.2642C157.984 90.2642 158.468 90.3636 158.899 90.5625C159.33 90.7614 159.683 91.0398 159.958 91.3977C160.233 91.7557 160.404 92.1733 160.47 92.6506H159.297C159.207 92.3026 159.008 91.9943 158.7 91.7259C158.395 91.4541 157.984 91.3182 157.467 91.3182C157.01 91.3182 156.609 91.4375 156.264 91.6761C155.923 91.9115 155.656 92.2446 155.464 92.6754C155.275 93.103 155.18 93.6051 155.18 94.1818C155.18 94.7718 155.273 95.2855 155.459 95.723C155.648 96.1605 155.913 96.5002 156.254 96.7422C156.599 96.9841 157.003 97.1051 157.467 97.1051C157.772 97.1051 158.049 97.0521 158.297 96.946C158.546 96.84 158.756 96.6875 158.929 96.4886C159.101 96.2898 159.224 96.0511 159.297 95.7727H160.47C160.404 96.2235 160.24 96.6295 159.978 96.9908C159.719 97.3487 159.376 97.6338 158.949 97.8459C158.524 98.0547 158.031 98.1591 157.467 98.1591ZM163.358 87.8182V98H162.185V87.8182H163.358ZM170.32 94.8778V90.3636H171.493V98H170.32V96.7074H170.24C170.061 97.0952 169.783 97.425 169.405 97.6967C169.027 97.9652 168.55 98.0994 167.973 98.0994C167.496 98.0994 167.072 97.995 166.701 97.7862C166.329 97.5741 166.038 97.2559 165.826 96.8317C165.614 96.4041 165.507 95.8655 165.507 95.2159V90.3636H166.681V95.1364C166.681 95.6932 166.837 96.1373 167.148 96.4688C167.463 96.8002 167.864 96.9659 168.351 96.9659C168.643 96.9659 168.94 96.8913 169.241 96.7422C169.546 96.593 169.801 96.3643 170.007 96.0561C170.216 95.7479 170.32 95.3551 170.32 94.8778ZM173.642 98V90.3636H174.816V98H173.642ZM173.702 89.3295L174.915 87.0227H176.287L174.736 89.3295H173.702ZM179.848 98.1591C179.212 98.1591 178.65 97.9983 178.163 97.6768C177.675 97.352 177.294 96.8946 177.019 96.3047C176.744 95.7114 176.607 95.0104 176.607 94.2017C176.607 93.3996 176.744 92.7036 177.019 92.1136C177.294 91.5237 177.677 91.0679 178.168 90.7464C178.658 90.425 179.225 90.2642 179.868 90.2642C180.365 90.2642 180.758 90.3471 181.046 90.5128C181.338 90.6752 181.56 90.8608 181.712 91.0696C181.868 91.2751 181.989 91.4441 182.075 91.5767H182.175V87.8182H183.348V98H182.214V96.8267H182.075C181.989 96.9659 181.866 97.1416 181.707 97.3537C181.548 97.5625 181.321 97.7498 181.026 97.9155C180.731 98.0779 180.339 98.1591 179.848 98.1591ZM180.007 97.1051C180.478 97.1051 180.875 96.9825 181.2 96.7372C181.525 96.4886 181.772 96.1456 181.941 95.7081C182.11 95.2673 182.195 94.7585 182.195 94.1818C182.195 93.6117 182.112 93.1129 181.946 92.6854C181.78 92.2545 181.535 91.9197 181.21 91.6811C180.885 91.4392 180.484 91.3182 180.007 91.3182C179.51 91.3182 179.096 91.4458 178.764 91.701C178.436 91.9529 178.189 92.2959 178.023 92.7301C177.861 93.161 177.78 93.6449 177.78 94.1818C177.78 94.7254 177.863 95.2192 178.028 95.6634C178.197 96.1042 178.446 96.4555 178.774 96.7173C179.106 96.9759 179.517 97.1051 180.007 97.1051ZM188.762 98.1591C188.073 98.1591 187.468 97.995 186.947 97.6669C186.43 97.3388 186.026 96.8797 185.734 96.2898C185.446 95.6998 185.302 95.0104 185.302 94.2216C185.302 93.4261 185.446 92.7318 185.734 92.1385C186.026 91.5452 186.43 91.0845 186.947 90.7564C187.468 90.4283 188.073 90.2642 188.762 90.2642C189.451 90.2642 190.055 90.4283 190.572 90.7564C191.092 91.0845 191.496 91.5452 191.785 92.1385C192.076 92.7318 192.222 93.4261 192.222 94.2216C192.222 95.0104 192.076 95.6998 191.785 96.2898C191.496 96.8797 191.092 97.3388 190.572 97.6669C190.055 97.995 189.451 98.1591 188.762 98.1591ZM188.762 97.1051C189.286 97.1051 189.717 96.9709 190.055 96.7024C190.393 96.4339 190.643 96.081 190.805 95.6435C190.968 95.206 191.049 94.732 191.049 94.2216C191.049 93.7112 190.968 93.2356 190.805 92.7947C190.643 92.3539 190.393 91.9976 190.055 91.7259C189.717 91.4541 189.286 91.3182 188.762 91.3182C188.238 91.3182 187.808 91.4541 187.469 91.7259C187.131 91.9976 186.881 92.3539 186.719 92.7947C186.556 93.2356 186.475 93.7112 186.475 94.2216C186.475 94.732 186.556 95.206 186.719 95.6435C186.881 96.081 187.131 96.4339 187.469 96.7024C187.808 96.9709 188.238 97.1051 188.762 97.1051ZM195.564 87.8182L195.465 95.1364H194.312L194.212 87.8182H195.564ZM194.888 98.0795C194.643 98.0795 194.433 97.9917 194.257 97.8161C194.081 97.6404 193.993 97.4299 193.993 97.1847C193.993 96.9394 194.081 96.7289 194.257 96.5533C194.433 96.3776 194.643 96.2898 194.888 96.2898C195.134 96.2898 195.344 96.3776 195.52 96.5533C195.695 96.7289 195.783 96.9394 195.783 97.1847C195.783 97.3471 195.742 97.4962 195.659 97.6321C195.579 97.768 195.472 97.8774 195.336 97.9602C195.203 98.0398 195.054 98.0795 194.888 98.0795Z" fill="white"/>
<path fill-rule="evenodd" clip-rule="evenodd" d="M430.529 25.5286C430.789 25.2682 431.211 25.2682 431.471 25.5286L435 29.0572L438.529 25.5286C438.789 25.2682 439.211 25.2682 439.471 25.5286C439.732 25.7889 439.732 26.211 439.471 26.4714L435.943 30L439.471 33.5286C439.732 33.7889 439.732 34.211 439.471 34.4714C439.211 34.7317 438.789 34.7317 438.529 34.4714L435 30.9428L431.471 34.4714C431.211 34.7317 430.789 34.7317 430.529 34.4714C430.268 34.211 430.268 33.7889 430.529 33.5286L434.057 30L430.529 26.4714C430.268 26.211 430.268 25.7889 430.529 25.5286Z" fill="white"/>
</g>
<defs>
<filter id="filter0_dd_123_675" x="0" y="0" width="475" height="149" filterUnits="userSpaceOnUse" color-interpolation-filters="sRGB">
<feFlood flood-opacity="0" result="BackgroundImageFix"/>
<feColorMatrix in="SourceAlpha" type="matrix" values="0 0 0 0 0 0 0 0 0 0 0 0 0 0 0 0 0 0 127 0" result="hardAlpha"/>
<feMorphology radius="2" operator="erode" in="SourceAlpha" result="effect1_dropShadow_123_675"/>
<feOffset dy="4"/>
<feGaussianBlur stdDeviation="3"/>
<feColorMatrix type="matrix" values="0 0 0 0 0 0 0 0 0 0 0 0 0 0 0 0 0 0 0.05 0"/>
<feBlend mode="normal" in2="BackgroundImageFix" result="effect1_dropShadow_123_675"/>
<feColorMatrix in="SourceAlpha" type="matrix" values="0 0 0 0 0 0 0 0 0 0 0 0 0 0 0 0 0 0 127 0" result="hardAlpha"/>
<feMorphology radius="3" operator="erode" in="SourceAlpha" result="effect2_dropShadow_123_675"/>
<feOffset dy="10"/>
<feGaussianBlur stdDeviation="7.5"/>
<feColorMatrix type="matrix" values="0 0 0 0 0 0 0 0 0 0 0 0 0 0 0 0 0 0 0.05 0"/>
<feBlend mode="normal" in2="effect1_dropShadow_123_675" result="effect2_dropShadow_123_675"/>
<feBlend mode="normal" in="SourceGraphic" in2="effect2_dropShadow_123_675" result="shape"/>
</filter>
</defs>
</svg>
