<svg width="171" height="46" viewBox="0 0 171 46" fill="none" xmlns="http://www.w3.org/2000/svg">
<path d="M4.02205 7.34304H5.8516L6.77134 8.52628L7.67617 9.58026L9.38143 11.718H7.3729L6.19961 10.2763L5.59804 9.42116L4.02205 7.34304ZM9.53555 5.7919C9.53555 6.90223 9.32508 7.84683 8.90415 8.62571C8.48654 9.40459 7.91646 9.99953 7.19393 10.4105C6.4747 10.8182 5.66599 11.022 4.76779 11.022C3.86296 11.022 3.05093 10.8165 2.33171 10.4055C1.61249 9.99455 1.04407 9.39962 0.626454 8.62074C0.20884 7.84186 3.32966e-05 6.89891 3.32966e-05 5.7919C3.32966e-05 4.68158 0.20884 3.73698 0.626454 2.9581C1.04407 2.17921 1.61249 1.58594 2.33171 1.17827C3.05093 0.767282 3.86296 0.561789 4.76779 0.561789C5.66599 0.561789 6.4747 0.767282 7.19393 1.17827C7.91646 1.58594 8.48654 2.17921 8.90415 2.9581C9.32508 3.73698 9.53555 4.68158 9.53555 5.7919ZM7.35302 5.7919C7.35302 5.07268 7.2453 4.46615 7.02986 3.9723C6.81774 3.47846 6.51779 3.10393 6.13 2.84872C5.74222 2.59351 5.28815 2.46591 4.76779 2.46591C4.24743 2.46591 3.79336 2.59351 3.40557 2.84872C3.01779 3.10393 2.71618 3.47846 2.50074 3.9723C2.28862 4.46615 2.18256 5.07268 2.18256 5.7919C2.18256 6.51113 2.28862 7.11766 2.50074 7.61151C2.71618 8.10535 3.01779 8.47988 3.40557 8.73509C3.79336 8.99029 4.24743 9.1179 4.76779 9.1179C5.28815 9.1179 5.74222 8.99029 6.13 8.73509C6.51779 8.47988 6.81774 8.10535 7.02986 7.61151C7.2453 7.11766 7.35302 6.51113 7.35302 5.7919ZM15.9874 7.63139V3.24645H18.1053V10.8828H16.0719V9.49574H15.9924C15.8201 9.94318 15.5334 10.3028 15.1323 10.5746C14.7346 10.8464 14.249 10.9822 13.6756 10.9822C13.1652 10.9822 12.7161 10.8662 12.3283 10.6342C11.9406 10.4022 11.6373 10.0724 11.4185 9.64489C11.2031 9.21733 11.0937 8.70526 11.0904 8.10866V3.24645H13.2083V7.73082C13.2116 8.18158 13.3326 8.53788 13.5712 8.79972C13.8099 9.06155 14.1297 9.19247 14.5308 9.19247C14.786 9.19247 15.0246 9.13447 15.2467 9.01847C15.4687 8.89915 15.6477 8.72348 15.7836 8.49148C15.9228 8.25947 15.9907 7.97277 15.9874 7.63139ZM21.977 11.027C21.4897 11.027 21.0555 10.9425 20.6744 10.7734C20.2932 10.6011 19.9916 10.3475 19.7696 10.0128C19.5508 9.67472 19.4414 9.25379 19.4414 8.75C19.4414 8.32576 19.5193 7.96946 19.6751 7.68111C19.8309 7.39276 20.043 7.16075 20.3115 6.98509C20.5799 6.80942 20.8849 6.67685 21.2262 6.58736C21.5709 6.49787 21.9322 6.4349 22.31 6.39844C22.7542 6.35204 23.1121 6.30895 23.3839 6.26918C23.6557 6.22609 23.8529 6.16312 23.9755 6.08026C24.0982 5.9974 24.1595 5.87476 24.1595 5.71236V5.68253C24.1595 5.36766 24.06 5.12405 23.8612 4.9517C23.6656 4.77936 23.3872 4.69318 23.026 4.69318C22.6448 4.69318 22.3415 4.7777 22.1162 4.94673C21.8908 5.11245 21.7416 5.32126 21.6687 5.57315L19.7099 5.41406C19.8093 4.95005 20.0049 4.54901 20.2966 4.21094C20.5882 3.86955 20.9644 3.60772 21.4251 3.42543C21.8891 3.23982 22.4261 3.14702 23.0359 3.14702C23.4601 3.14702 23.8662 3.19673 24.2539 3.29616C24.645 3.3956 24.9914 3.54972 25.293 3.75852C25.5979 3.96733 25.8382 4.2358 26.0139 4.56392C26.1895 4.88873 26.2774 5.27817 26.2774 5.73224V10.8828H24.2689V9.82386H24.2092C24.0866 10.0625 23.9225 10.273 23.717 10.4553C23.5115 10.6342 23.2646 10.7751 22.9762 10.8778C22.6879 10.9773 22.3548 11.027 21.977 11.027ZM22.5835 9.56534C22.895 9.56534 23.1701 9.50402 23.4088 9.38139C23.6474 9.25545 23.8347 9.08641 23.9706 8.87429C24.1064 8.66217 24.1744 8.42187 24.1744 8.15341V7.34304C24.1081 7.38613 24.017 7.4259 23.901 7.46236C23.7883 7.4955 23.6607 7.52699 23.5181 7.55682C23.3756 7.58333 23.2331 7.60819 23.0906 7.63139C22.9481 7.65128 22.8188 7.66951 22.7028 7.68608C22.4542 7.72254 22.2371 7.78054 22.0515 7.86009C21.8659 7.93963 21.7217 8.04735 21.619 8.18324C21.5163 8.31581 21.4649 8.48153 21.4649 8.6804C21.4649 8.96875 21.5693 9.18916 21.7781 9.34162C21.9902 9.49077 22.2587 9.56534 22.5835 9.56534ZM30.0384 0.700994V10.8828H27.9205V0.700994H30.0384ZM34.9752 13.7464V3.24645H37.0632V4.52912H37.1577C37.2505 4.32363 37.3847 4.11482 37.5604 3.9027C37.7394 3.68726 37.9714 3.50829 38.2564 3.36577C38.5448 3.21993 38.9027 3.14702 39.3303 3.14702C39.8871 3.14702 40.4008 3.29285 40.8715 3.58452C41.3421 3.87287 41.7183 4.30871 42 4.89205C42.2818 5.47206 42.4226 6.19957 42.4226 7.07457C42.4226 7.92637 42.2851 8.6456 42.01 9.23224C41.7382 9.81558 41.367 10.258 40.8963 10.5597C40.429 10.858 39.9053 11.0071 39.3253 11.0071C38.9143 11.0071 38.5647 10.9392 38.2763 10.8033C37.9913 10.6674 37.7576 10.4967 37.5753 10.2912C37.393 10.0824 37.2538 9.87192 37.1577 9.6598H37.0931V13.7464H34.9752ZM37.0483 7.06463C37.0483 7.5187 37.1113 7.91477 37.2372 8.25284C37.3632 8.59091 37.5455 8.8544 37.7841 9.04332C38.0228 9.22893 38.3128 9.32173 38.6542 9.32173C38.9988 9.32173 39.2905 9.22727 39.5292 9.03835C39.7678 8.84612 39.9484 8.58097 40.0711 8.2429C40.197 7.90152 40.26 7.50876 40.26 7.06463C40.26 6.62382 40.1987 6.23603 40.076 5.90128C39.9534 5.56652 39.7728 5.30469 39.5341 5.11577C39.2955 4.92685 39.0022 4.83239 38.6542 4.83239C38.3095 4.83239 38.0178 4.92353 37.7792 5.10582C37.5438 5.28812 37.3632 5.54664 37.2372 5.88139C37.1113 6.21615 37.0483 6.61056 37.0483 7.06463ZM47.2848 11.032C46.5126 11.032 45.8447 10.8679 45.2813 10.5398C44.7212 10.2083 44.2886 9.74763 43.9837 9.15767C43.6788 8.56439 43.5263 7.87666 43.5263 7.09446C43.5263 6.30563 43.6788 5.61624 43.9837 5.02628C44.2886 4.433 44.7212 3.9723 45.2813 3.64418C45.8447 3.31274 46.5126 3.14702 47.2848 3.14702C48.0571 3.14702 48.7233 3.31274 49.2834 3.64418C49.8469 3.9723 50.281 4.433 50.586 5.02628C50.8909 5.61624 51.0434 6.30563 51.0434 7.09446C51.0434 7.87666 50.8909 8.56439 50.586 9.15767C50.281 9.74763 49.8469 10.2083 49.2834 10.5398C48.7233 10.8679 48.0571 11.032 47.2848 11.032ZM47.2948 9.39134C47.6461 9.39134 47.9394 9.2919 48.1747 9.09304C48.4101 8.89086 48.5874 8.61577 48.7067 8.26776C48.8293 7.91974 48.8907 7.52367 48.8907 7.07955C48.8907 6.63542 48.8293 6.23935 48.7067 5.89134C48.5874 5.54332 48.4101 5.26823 48.1747 5.06605C47.9394 4.86387 47.6461 4.76278 47.2948 4.76278C46.9401 4.76278 46.6418 4.86387 46.3999 5.06605C46.1613 5.26823 45.9806 5.54332 45.858 5.89134C45.7387 6.23935 45.679 6.63542 45.679 7.07955C45.679 7.52367 45.7387 7.91974 45.858 8.26776C45.9806 8.61577 46.1613 8.89086 46.3999 9.09304C46.6418 9.2919 46.9401 9.39134 47.2948 9.39134ZM54.5384 6.46804V10.8828H52.4205V3.24645H54.439V4.59375H54.5284C54.6975 4.14962 54.9809 3.7983 55.3786 3.53977C55.7763 3.27794 56.2586 3.14702 56.8253 3.14702C57.3556 3.14702 57.818 3.26302 58.2124 3.49503C58.6068 3.72704 58.9134 4.05848 59.1321 4.48935C59.3509 4.9169 59.4603 5.42732 59.4603 6.0206V10.8828H57.3424V6.39844C57.3457 5.93111 57.2264 5.56652 56.9844 5.30469C56.7425 5.03954 56.4094 4.90696 55.9851 4.90696C55.7001 4.90696 55.4482 4.96828 55.2294 5.09091C55.014 5.21354 54.845 5.39252 54.7223 5.62784C54.603 5.85985 54.5417 6.13991 54.5384 6.46804ZM65.1913 3.24645V4.83736H60.5925V3.24645H65.1913ZM61.6366 1.4169H63.7545V8.53622C63.7545 8.73177 63.7843 8.88423 63.844 8.99361C63.9036 9.09967 63.9865 9.17424 64.0925 9.21733C64.2019 9.26042 64.3279 9.28196 64.4704 9.28196C64.5698 9.28196 64.6692 9.27367 64.7687 9.2571C64.8681 9.23722 64.9443 9.2223 64.9974 9.21236L65.3305 10.7884C65.2244 10.8215 65.0753 10.8596 64.883 10.9027C64.6908 10.9491 64.4571 10.9773 64.182 10.9872C63.6716 11.0071 63.2242 10.9392 62.8397 10.7834C62.4585 10.6276 62.1619 10.3857 61.9498 10.0575C61.7377 9.7294 61.6333 9.3151 61.6366 8.81463V1.4169ZM69.9391 11.032C69.1669 11.032 68.499 10.8679 67.9356 10.5398C67.3754 10.2083 66.9429 9.74763 66.638 9.15767C66.3331 8.56439 66.1806 7.87666 66.1806 7.09446C66.1806 6.30563 66.3331 5.61624 66.638 5.02628C66.9429 4.433 67.3754 3.9723 67.9356 3.64418C68.499 3.31274 69.1669 3.14702 69.9391 3.14702C70.7114 3.14702 71.3776 3.31274 71.9377 3.64418C72.5012 3.9723 72.9353 4.433 73.2403 5.02628C73.5452 5.61624 73.6977 6.30563 73.6977 7.09446C73.6977 7.87666 73.5452 8.56439 73.2403 9.15767C72.9353 9.74763 72.5012 10.2083 71.9377 10.5398C71.3776 10.8679 70.7114 11.032 69.9391 11.032ZM69.9491 9.39134C70.3004 9.39134 70.5937 9.2919 70.829 9.09304C71.0644 8.89086 71.2417 8.61577 71.361 8.26776C71.4836 7.91974 71.545 7.52367 71.545 7.07955C71.545 6.63542 71.4836 6.23935 71.361 5.89134C71.2417 5.54332 71.0644 5.26823 70.829 5.06605C70.5937 4.86387 70.3004 4.76278 69.9491 4.76278C69.5944 4.76278 69.2961 4.86387 69.0542 5.06605C68.8156 5.26823 68.6349 5.54332 68.5123 5.89134C68.393 6.23935 68.3333 6.63542 68.3333 7.07955C68.3333 7.52367 68.393 7.91974 68.5123 8.26776C68.6349 8.61577 68.8156 8.89086 69.0542 9.09304C69.2961 9.2919 69.5944 9.39134 69.9491 9.39134ZM82.3768 3.24645V4.83736H77.7781V3.24645H82.3768ZM78.8221 1.4169H80.94V8.53622C80.94 8.73177 80.9698 8.88423 81.0295 8.99361C81.0892 9.09967 81.172 9.17424 81.2781 9.21733C81.3875 9.26042 81.5134 9.28196 81.6559 9.28196C81.7554 9.28196 81.8548 9.27367 81.9542 9.2571C82.0537 9.23722 82.1299 9.2223 82.1829 9.21236L82.516 10.7884C82.41 10.8215 82.2608 10.8596 82.0686 10.9027C81.8763 10.9491 81.6427 10.9773 81.3676 10.9872C80.8572 11.0071 80.4097 10.9392 80.0252 10.7834C79.6441 10.6276 79.3475 10.3857 79.1353 10.0575C78.9232 9.7294 78.8188 9.3151 78.8221 8.81463V1.4169ZM88.6534 7.63139V3.24645H90.7713V10.8828H88.738V9.49574H88.6584C88.4861 9.94318 88.1994 10.3028 87.7983 10.5746C87.4006 10.8464 86.915 10.9822 86.3417 10.9822C85.8312 10.9822 85.3821 10.8662 84.9944 10.6342C84.6066 10.4022 84.3033 10.0724 84.0846 9.64489C83.8691 9.21733 83.7597 8.70526 83.7564 8.10866V3.24645H85.8743V7.73082C85.8776 8.18158 85.9986 8.53788 86.2372 8.79972C86.4759 9.06155 86.7957 9.19247 87.1968 9.19247C87.452 9.19247 87.6906 9.13447 87.9127 9.01847C88.1347 8.89915 88.3137 8.72348 88.4496 8.49148C88.5888 8.25947 88.6568 7.97277 88.6534 7.63139ZM92.4654 10.8828V3.24645H94.5187V4.57884H94.5982C94.7374 4.10488 94.9711 3.74692 95.2992 3.50497C95.6273 3.25971 96.0052 3.13707 96.4327 3.13707C96.5388 3.13707 96.6531 3.1437 96.7758 3.15696C96.8984 3.17022 97.0061 3.18845 97.0989 3.21165V5.09091C96.9995 5.06108 96.862 5.03456 96.6863 5.01136C96.5106 4.98816 96.3499 4.97656 96.204 4.97656C95.8925 4.97656 95.6141 5.04451 95.3688 5.1804C95.1269 5.31297 94.9346 5.49858 94.7921 5.73722C94.6529 5.97585 94.5833 6.25095 94.5833 6.5625V10.8828H92.4654ZM98.1939 10.8828V3.24645H100.312V10.8828H98.1939ZM98.4972 2.26207L99.5512 0H101.51L99.9936 2.26207H98.4972ZM108.362 5.42401L106.423 5.54332C106.39 5.3776 106.319 5.22846 106.209 5.09588C106.1 4.95999 105.956 4.85227 105.777 4.77273C105.601 4.68987 105.391 4.64844 105.145 4.64844C104.817 4.64844 104.541 4.71804 104.315 4.85724C104.09 4.99313 103.977 5.17543 103.977 5.40412C103.977 5.58641 104.05 5.74053 104.196 5.86648C104.342 5.99242 104.592 6.09351 104.947 6.16974L106.329 6.44815C107.071 6.60062 107.625 6.84588 107.989 7.18395C108.354 7.52202 108.536 7.96615 108.536 8.51634C108.536 9.01681 108.389 9.45597 108.094 9.83381C107.802 10.2116 107.401 10.5066 106.89 10.7188C106.383 10.9276 105.798 11.032 105.136 11.032C104.125 11.032 103.319 10.8215 102.719 10.4006C102.123 9.97633 101.773 9.39962 101.67 8.67045L103.753 8.56108C103.816 8.86932 103.969 9.10464 104.211 9.26705C104.453 9.42614 104.763 9.50568 105.14 9.50568C105.512 9.50568 105.81 9.43442 106.035 9.2919C106.264 9.14607 106.38 8.95881 106.383 8.73011C106.38 8.53788 106.299 8.38045 106.14 8.25781C105.981 8.13187 105.735 8.03575 105.404 7.96946L104.082 7.70597C103.336 7.55682 102.781 7.2983 102.416 6.9304C102.055 6.5625 101.874 6.09351 101.874 5.52344C101.874 5.03291 102.007 4.61032 102.272 4.25568C102.54 3.90104 102.917 3.6276 103.4 3.43537C103.888 3.24313 104.458 3.14702 105.111 3.14702C106.075 3.14702 106.834 3.35085 107.388 3.75852C107.944 4.16619 108.269 4.72135 108.362 5.42401ZM113.931 3.24645V4.83736H109.333V3.24645H113.931ZM110.377 1.4169H112.495V8.53622C112.495 8.73177 112.525 8.88423 112.584 8.99361C112.644 9.09967 112.727 9.17424 112.833 9.21733C112.942 9.26042 113.068 9.28196 113.211 9.28196C113.31 9.28196 113.409 9.27367 113.509 9.2571C113.608 9.23722 113.685 9.2223 113.738 9.21236L114.071 10.7884C113.965 10.8215 113.815 10.8596 113.623 10.9027C113.431 10.9491 113.197 10.9773 112.922 10.9872C112.412 11.0071 111.964 10.9392 111.58 10.7834C111.199 10.6276 110.902 10.3857 110.69 10.0575C110.478 9.7294 110.373 9.3151 110.377 8.81463V1.4169ZM115.311 10.8828V3.24645H117.429V10.8828H115.311ZM116.375 2.26207C116.06 2.26207 115.79 2.15767 115.565 1.94886C115.343 1.73674 115.232 1.48319 115.232 1.18821C115.232 0.896543 115.343 0.646307 115.565 0.4375C115.79 0.225378 116.06 0.119318 116.375 0.119318C116.69 0.119318 116.958 0.225378 117.18 0.4375C117.406 0.646307 117.518 0.896543 117.518 1.18821C117.518 1.48319 117.406 1.73674 117.18 1.94886C116.958 2.15767 116.69 2.26207 116.375 2.26207ZM122.576 11.032C121.794 11.032 121.121 10.8662 120.557 10.5348C119.997 10.2 119.566 9.73603 119.265 9.14276C118.966 8.54948 118.817 7.86671 118.817 7.09446C118.817 6.31226 118.968 5.62618 119.27 5.03622C119.575 4.44294 120.007 3.98059 120.567 3.64915C121.127 3.31439 121.794 3.14702 122.566 3.14702C123.232 3.14702 123.815 3.26799 124.316 3.50994C124.816 3.75189 125.212 4.09162 125.504 4.52912C125.796 4.96662 125.957 5.48035 125.986 6.07031H123.988C123.931 5.68916 123.782 5.38258 123.54 5.15057C123.302 4.91525 122.988 4.79759 122.601 4.79759C122.273 4.79759 121.986 4.88707 121.741 5.06605C121.499 5.24171 121.31 5.49858 121.174 5.83665C121.038 6.17472 120.97 6.58404 120.97 7.06463C120.97 7.55185 121.036 7.96615 121.169 8.30753C121.305 8.64891 121.495 8.90909 121.741 9.08807C121.986 9.26705 122.273 9.35653 122.601 9.35653C122.843 9.35653 123.06 9.30682 123.252 9.20739C123.448 9.10795 123.608 8.96378 123.734 8.77486C123.863 8.58262 123.948 8.35227 123.988 8.08381H125.986C125.953 8.66714 125.794 9.18087 125.509 9.625C125.227 10.0658 124.838 10.4105 124.341 10.6591C123.844 10.9077 123.255 11.032 122.576 11.032ZM130.793 11.032C130.02 11.032 129.353 10.8679 128.789 10.5398C128.229 10.2083 127.796 9.74763 127.492 9.15767C127.187 8.56439 127.034 7.87666 127.034 7.09446C127.034 6.30563 127.187 5.61624 127.492 5.02628C127.796 4.433 128.229 3.9723 128.789 3.64418C129.353 3.31274 130.02 3.14702 130.793 3.14702C131.565 3.14702 132.231 3.31274 132.791 3.64418C133.355 3.9723 133.789 4.433 134.094 5.02628C134.399 5.61624 134.551 6.30563 134.551 7.09446C134.551 7.87666 134.399 8.56439 134.094 9.15767C133.789 9.74763 133.355 10.2083 132.791 10.5398C132.231 10.8679 131.565 11.032 130.793 11.032ZM130.803 9.39134C131.154 9.39134 131.447 9.2919 131.683 9.09304C131.918 8.89086 132.095 8.61577 132.215 8.26776C132.337 7.91974 132.398 7.52367 132.398 7.07955C132.398 6.63542 132.337 6.23935 132.215 5.89134C132.095 5.54332 131.918 5.26823 131.683 5.06605C131.447 4.86387 131.154 4.76278 130.803 4.76278C130.448 4.76278 130.15 4.86387 129.908 5.06605C129.669 5.26823 129.488 5.54332 129.366 5.89134C129.246 6.23935 129.187 6.63542 129.187 7.07955C129.187 7.52367 129.246 7.91974 129.366 8.26776C129.488 8.61577 129.669 8.89086 129.908 9.09304C130.15 9.2919 130.448 9.39134 130.803 9.39134ZM146.288 3.24645L143.618 10.8828H141.232L138.562 3.24645H140.799L142.385 8.71023H142.465L144.046 3.24645H146.288ZM150.576 11.032C149.804 11.032 149.136 10.8679 148.572 10.5398C148.012 10.2083 147.58 9.74763 147.275 9.15767C146.97 8.56439 146.817 7.87666 146.817 7.09446C146.817 6.30563 146.97 5.61624 147.275 5.02628C147.58 4.433 148.012 3.9723 148.572 3.64418C149.136 3.31274 149.804 3.14702 150.576 3.14702C151.348 3.14702 152.014 3.31274 152.574 3.64418C153.138 3.9723 153.572 4.433 153.877 5.02628C154.182 5.61624 154.334 6.30563 154.334 7.09446C154.334 7.87666 154.182 8.56439 153.877 9.15767C153.572 9.74763 153.138 10.2083 152.574 10.5398C152.014 10.8679 151.348 11.032 150.576 11.032ZM150.586 9.39134C150.937 9.39134 151.23 9.2919 151.466 9.09304C151.701 8.89086 151.878 8.61577 151.998 8.26776C152.12 7.91974 152.182 7.52367 152.182 7.07955C152.182 6.63542 152.12 6.23935 151.998 5.89134C151.878 5.54332 151.701 5.26823 151.466 5.06605C151.23 4.86387 150.937 4.76278 150.586 4.76278C150.231 4.76278 149.933 4.86387 149.691 5.06605C149.452 5.26823 149.272 5.54332 149.149 5.89134C149.03 6.23935 148.97 6.63542 148.97 7.07955C148.97 7.52367 149.03 7.91974 149.149 8.26776C149.272 8.61577 149.452 8.89086 149.691 9.09304C149.933 9.2919 150.231 9.39134 150.586 9.39134ZM159.162 11.032C158.38 11.032 157.707 10.8662 157.143 10.5348C156.583 10.2 156.152 9.73603 155.851 9.14276C155.552 8.54948 155.403 7.86671 155.403 7.09446C155.403 6.31226 155.554 5.62618 155.856 5.03622C156.161 4.44294 156.593 3.98059 157.153 3.64915C157.713 3.31439 158.38 3.14702 159.152 3.14702C159.818 3.14702 160.401 3.26799 160.902 3.50994C161.402 3.75189 161.798 4.09162 162.09 4.52912C162.382 4.96662 162.542 5.48035 162.572 6.07031H160.574C160.517 5.68916 160.368 5.38258 160.126 5.15057C159.888 4.91525 159.574 4.79759 159.187 4.79759C158.859 4.79759 158.572 4.88707 158.327 5.06605C158.085 5.24171 157.896 5.49858 157.76 5.83665C157.624 6.17472 157.556 6.58404 157.556 7.06463C157.556 7.55185 157.622 7.96615 157.755 8.30753C157.891 8.64891 158.081 8.90909 158.327 9.08807C158.572 9.26705 158.859 9.35653 159.187 9.35653C159.429 9.35653 159.646 9.30682 159.838 9.20739C160.033 9.10795 160.194 8.96378 160.32 8.77486C160.449 8.58262 160.534 8.35227 160.574 8.08381H162.572C162.539 8.66714 162.38 9.18087 162.095 9.625C161.813 10.0658 161.424 10.4105 160.927 10.6591C160.43 10.9077 159.841 11.032 159.162 11.032ZM167.408 11.032C166.623 11.032 165.947 10.8729 165.38 10.5547C164.817 10.2332 164.382 9.77912 164.077 9.19247C163.773 8.60251 163.62 7.90483 163.62 7.09943C163.62 6.31392 163.773 5.62453 164.077 5.03125C164.382 4.43797 164.812 3.97562 165.365 3.64418C165.922 3.31274 166.575 3.14702 167.324 3.14702C167.828 3.14702 168.297 3.22822 168.731 3.39062C169.168 3.54972 169.55 3.79001 169.874 4.11151C170.202 4.433 170.458 4.83736 170.64 5.32457C170.822 5.80848 170.913 6.37524 170.913 7.02486V7.60653H164.465V6.29403H168.92C168.92 5.98911 168.853 5.71899 168.721 5.48366C168.588 5.24834 168.404 5.06439 168.169 4.93182C167.937 4.79593 167.667 4.72798 167.359 4.72798C167.037 4.72798 166.752 4.80256 166.504 4.9517C166.258 5.09754 166.066 5.29474 165.927 5.54332C165.788 5.78859 165.716 6.06203 165.713 6.36364V7.61151C165.713 7.98935 165.783 8.31581 165.922 8.59091C166.064 8.866 166.265 9.07812 166.523 9.22727C166.782 9.37642 167.089 9.45099 167.443 9.45099C167.679 9.45099 167.894 9.41785 168.09 9.35156C168.285 9.28527 168.452 9.18584 168.592 9.05327C168.731 8.92069 168.837 8.75829 168.91 8.56605L170.869 8.69531C170.769 9.16596 170.565 9.57694 170.257 9.92827C169.952 10.2763 169.558 10.5481 169.074 10.7436C168.593 10.9358 168.038 11.032 167.408 11.032ZM168.273 2.33168L167.274 1.11861L166.275 2.33168H164.47V2.26207L166.484 0.0745736H168.06L170.078 2.26207V2.33168H168.273ZM25.8094 30.7464V26.6598H25.7448C25.6454 26.8719 25.5045 27.0824 25.3222 27.2912C25.1432 27.4967 24.9096 27.6674 24.6212 27.8033C24.3362 27.9392 23.9882 28.0071 23.5772 28.0071C22.9972 28.0071 22.4718 27.858 22.0012 27.5597C21.5339 27.258 21.1626 26.8156 20.8876 26.2322C20.6158 25.6456 20.4799 24.9264 20.4799 24.0746C20.4799 23.1996 20.6207 22.4721 20.9025 21.892C21.1842 21.3087 21.5587 20.8729 22.026 20.5845C22.4967 20.2929 23.0121 20.147 23.5722 20.147C23.9998 20.147 24.3561 20.2199 24.6411 20.3658C24.9295 20.5083 25.1615 20.6873 25.3371 20.9027C25.5161 21.1148 25.652 21.3236 25.7448 21.5291H25.8343V20.2464H27.9224V30.7464H25.8094ZM24.2483 26.3217C24.5897 26.3217 24.8781 26.2289 25.1134 26.0433C25.352 25.8544 25.5343 25.5909 25.6603 25.2528C25.7895 24.9148 25.8542 24.5187 25.8542 24.0646C25.8542 23.6106 25.7912 23.2161 25.6653 22.8814C25.5393 22.5466 25.357 22.2881 25.1184 22.1058C24.8797 21.9235 24.5897 21.8324 24.2483 21.8324C23.9003 21.8324 23.607 21.9268 23.3684 22.1158C23.1297 22.3047 22.9491 22.5665 22.8265 22.9013C22.7038 23.236 22.6425 23.6238 22.6425 24.0646C22.6425 24.5088 22.7038 24.9015 22.8265 25.2429C22.9524 25.581 23.1331 25.8461 23.3684 26.0384C23.607 26.2273 23.9003 26.3217 24.2483 26.3217ZM34.5197 24.6314V20.2464H36.6376V27.8828H34.6042V26.4957H34.5246C34.3523 26.9432 34.0656 27.3028 33.6645 27.5746C33.2668 27.8464 32.7813 27.9822 32.2079 27.9822C31.6974 27.9822 31.2483 27.8662 30.8606 27.6342C30.4728 27.4022 30.1695 27.0724 29.9508 26.6449C29.7353 26.2173 29.626 25.7053 29.6226 25.1087V20.2464H31.7405V24.7308C31.7438 25.1816 31.8648 25.5379 32.1035 25.7997C32.3421 26.0616 32.6619 26.1925 33.063 26.1925C33.3182 26.1925 33.5568 26.1345 33.7789 26.0185C34.001 25.8991 34.1799 25.7235 34.3158 25.4915C34.455 25.2595 34.523 24.9728 34.5197 24.6314ZM41.8117 28.032C41.0262 28.032 40.3501 27.8729 39.7833 27.5547C39.2199 27.2332 38.7857 26.7791 38.4808 26.1925C38.1758 25.6025 38.0234 24.9048 38.0234 24.0994C38.0234 23.3139 38.1758 22.6245 38.4808 22.0312C38.7857 21.438 39.2149 20.9756 39.7684 20.6442C40.3252 20.3127 40.9782 20.147 41.7272 20.147C42.231 20.147 42.7 20.2282 43.1342 20.3906C43.5717 20.5497 43.9528 20.79 44.2776 21.1115C44.6058 21.433 44.861 21.8374 45.0433 22.3246C45.2256 22.8085 45.3167 23.3752 45.3167 24.0249V24.6065H38.8686V23.294H43.3231C43.3231 22.9891 43.2568 22.719 43.1242 22.4837C42.9917 22.2483 42.8077 22.0644 42.5724 21.9318C42.3404 21.7959 42.0703 21.728 41.762 21.728C41.4405 21.728 41.1555 21.8026 40.9069 21.9517C40.6616 22.0975 40.4694 22.2947 40.3302 22.5433C40.191 22.7886 40.1197 23.062 40.1164 23.3636V24.6115C40.1164 24.9893 40.186 25.3158 40.3252 25.5909C40.4677 25.866 40.6683 26.0781 40.9268 26.2273C41.1853 26.3764 41.4919 26.451 41.8465 26.451C42.0819 26.451 42.2973 26.4179 42.4928 26.3516C42.6884 26.2853 42.8558 26.1858 42.995 26.0533C43.1342 25.9207 43.2402 25.7583 43.3132 25.5661L45.272 25.6953C45.1725 26.166 44.9687 26.5769 44.6605 26.9283C44.3555 27.2763 43.9611 27.5481 43.4772 27.7436C42.9966 27.9358 42.4415 28.032 41.8117 28.032ZM46.6988 27.8828V20.2464H48.7521V21.5788H48.8316C48.9708 21.1049 49.2045 20.7469 49.5326 20.505C49.8607 20.2597 50.2386 20.1371 50.6661 20.1371C50.7722 20.1371 50.8865 20.1437 51.0092 20.157C51.1318 20.1702 51.2395 20.1884 51.3323 20.2116V22.0909C51.2329 22.0611 51.0954 22.0346 50.9197 22.0114C50.744 21.9882 50.5833 21.9766 50.4374 21.9766C50.1259 21.9766 49.8475 22.0445 49.6022 22.1804C49.3603 22.313 49.168 22.4986 49.0255 22.7372C48.8863 22.9759 48.8167 23.2509 48.8167 23.5625V27.8828H46.6988ZM59.1178 28.032C58.3356 28.032 57.6628 27.8662 57.0994 27.5348C56.5392 27.2 56.1084 26.736 55.8068 26.1428C55.5085 25.5495 55.3593 24.8667 55.3593 24.0945C55.3593 23.3123 55.5101 22.6262 55.8117 22.0362C56.1167 21.4429 56.5492 20.9806 57.1093 20.6491C57.6695 20.3144 58.3356 20.147 59.1079 20.147C59.7741 20.147 60.3574 20.268 60.8579 20.5099C61.3584 20.7519 61.7544 21.0916 62.0461 21.5291C62.3378 21.9666 62.4985 22.4804 62.5284 23.0703H60.5298C60.4734 22.6892 60.3243 22.3826 60.0823 22.1506C59.8437 21.9152 59.5305 21.7976 59.1427 21.7976C58.8146 21.7976 58.5279 21.8871 58.2826 22.0661C58.0407 22.2417 57.8517 22.4986 57.7159 22.8366C57.58 23.1747 57.512 23.584 57.512 24.0646C57.512 24.5518 57.5783 24.9661 57.7109 25.3075C57.8468 25.6489 58.0373 25.9091 58.2826 26.0881C58.5279 26.267 58.8146 26.3565 59.1427 26.3565C59.3847 26.3565 59.6017 26.3068 59.794 26.2074C59.9895 26.108 60.1503 25.9638 60.2762 25.7749C60.4055 25.5826 60.49 25.3523 60.5298 25.0838H62.5284C62.4952 25.6671 62.3361 26.1809 62.0511 26.625C61.7694 27.0658 61.3799 27.4105 60.8828 27.6591C60.3856 27.9077 59.7973 28.032 59.1178 28.032ZM67.3346 28.032C66.5624 28.032 65.8945 27.8679 65.3311 27.5398C64.771 27.2083 64.3384 26.7476 64.0335 26.1577C63.7286 25.5644 63.5761 24.8767 63.5761 24.0945C63.5761 23.3056 63.7286 22.6162 64.0335 22.0263C64.3384 21.433 64.771 20.9723 65.3311 20.6442C65.8945 20.3127 66.5624 20.147 67.3346 20.147C68.1069 20.147 68.7731 20.3127 69.3332 20.6442C69.8967 20.9723 70.3309 21.433 70.6358 22.0263C70.9407 22.6162 71.0932 23.3056 71.0932 24.0945C71.0932 24.8767 70.9407 25.5644 70.6358 26.1577C70.3309 26.7476 69.8967 27.2083 69.3332 27.5398C68.7731 27.8679 68.1069 28.032 67.3346 28.032ZM67.3446 26.3913C67.6959 26.3913 67.9892 26.2919 68.2246 26.093C68.4599 25.8909 68.6372 25.6158 68.7565 25.2678C68.8791 24.9197 68.9405 24.5237 68.9405 24.0795C68.9405 23.6354 68.8791 23.2393 68.7565 22.8913C68.6372 22.5433 68.4599 22.2682 68.2246 22.0661C67.9892 21.8639 67.6959 21.7628 67.3446 21.7628C66.9899 21.7628 66.6916 21.8639 66.4497 22.0661C66.2111 22.2682 66.0304 22.5433 65.9078 22.8913C65.7885 23.2393 65.7288 23.6354 65.7288 24.0795C65.7288 24.5237 65.7885 24.9197 65.9078 25.2678C66.0304 25.6158 66.2111 25.8909 66.4497 26.093C66.6916 26.2919 66.9899 26.3913 67.3446 26.3913ZM74.5882 23.468V27.8828H72.4703V20.2464H74.4888V21.5938H74.5782C74.7473 21.1496 75.0307 20.7983 75.4284 20.5398C75.8261 20.2779 76.3084 20.147 76.8751 20.147C77.4054 20.147 77.8678 20.263 78.2622 20.495C78.6566 20.727 78.9632 21.0585 79.1819 21.4893C79.4007 21.9169 79.5101 22.4273 79.5101 23.0206V27.8828H77.3922V23.3984C77.3955 22.9311 77.2762 22.5665 77.0342 22.3047C76.7923 22.0395 76.4592 21.907 76.0349 21.907C75.7499 21.907 75.498 21.9683 75.2792 22.0909C75.0638 22.2135 74.8948 22.3925 74.7721 22.6278C74.6528 22.8598 74.5915 23.1399 74.5882 23.468ZM83.2972 23.468V27.8828H81.1793V17.701H83.2375V21.5938H83.327C83.4994 21.143 83.7778 20.79 84.1622 20.5348C84.5467 20.2763 85.0289 20.147 85.609 20.147C86.1393 20.147 86.6016 20.263 86.996 20.495C87.3938 20.7237 87.702 21.0535 87.9208 21.4844C88.1428 21.9119 88.2522 22.424 88.2489 23.0206V27.8828H86.131V23.3984C86.1343 22.9278 86.015 22.5616 85.773 22.2997C85.5344 22.0379 85.1996 21.907 84.7688 21.907C84.4804 21.907 84.2252 21.9683 84.0031 22.0909C83.7844 22.2135 83.612 22.3925 83.4861 22.6278C83.3635 22.8598 83.3005 23.1399 83.2972 23.468ZM93.3957 28.032C92.6102 28.032 91.9341 27.8729 91.3673 27.5547C90.8039 27.2332 90.3697 26.7791 90.0648 26.1925C89.7598 25.6025 89.6074 24.9048 89.6074 24.0994C89.6074 23.3139 89.7598 22.6245 90.0648 22.0312C90.3697 21.438 90.7989 20.9756 91.3524 20.6442C91.9092 20.3127 92.5621 20.147 93.3112 20.147C93.815 20.147 94.284 20.2282 94.7182 20.3906C95.1557 20.5497 95.5368 20.79 95.8616 21.1115C96.1898 21.433 96.445 21.8374 96.6273 22.3246C96.8095 22.8085 96.9007 23.3752 96.9007 24.0249V24.6065H90.4525V23.294H94.9071C94.9071 22.9891 94.8408 22.719 94.7082 22.4837C94.5756 22.2483 94.3917 22.0644 94.1564 21.9318C93.9244 21.7959 93.6542 21.728 93.346 21.728C93.0245 21.728 92.7395 21.8026 92.4909 21.9517C92.2456 22.0975 92.0534 22.2947 91.9142 22.5433C91.775 22.7886 91.7037 23.062 91.7004 23.3636V24.6115C91.7004 24.9893 91.77 25.3158 91.9092 25.5909C92.0517 25.866 92.2523 26.0781 92.5108 26.2273C92.7693 26.3764 93.0759 26.451 93.4305 26.451C93.6658 26.451 93.8813 26.4179 94.0768 26.3516C94.2724 26.2853 94.4398 26.1858 94.579 26.0533C94.7182 25.9207 94.8242 25.7583 94.8971 25.5661L96.8559 25.6953C96.7565 26.166 96.5527 26.5769 96.2444 26.9283C95.9395 27.2763 95.5451 27.5481 95.0612 27.7436C94.5806 27.9358 94.0255 28.032 93.3957 28.032ZM101.733 28.032C100.951 28.032 100.278 27.8662 99.7146 27.5348C99.1545 27.2 98.7236 26.736 98.422 26.1428C98.1237 25.5495 97.9746 24.8667 97.9746 24.0945C97.9746 23.3123 98.1254 22.6262 98.427 22.0362C98.7319 21.4429 99.1644 20.9806 99.7246 20.6491C100.285 20.3144 100.951 20.147 101.723 20.147C102.389 20.147 102.973 20.268 103.473 20.5099C103.974 20.7519 104.37 21.0916 104.661 21.5291C104.953 21.9666 105.114 22.4804 105.144 23.0703H103.145C103.089 22.6892 102.94 22.3826 102.698 22.1506C102.459 21.9152 102.146 21.7976 101.758 21.7976C101.43 21.7976 101.143 21.8871 100.898 22.0661C100.656 22.2417 100.467 22.4986 100.331 22.8366C100.195 23.1747 100.127 23.584 100.127 24.0646C100.127 24.5518 100.194 24.9661 100.326 25.3075C100.462 25.6489 100.653 25.9091 100.898 26.0881C101.143 26.267 101.43 26.3565 101.758 26.3565C102 26.3565 102.217 26.3068 102.409 26.2074C102.605 26.108 102.766 25.9638 102.891 25.7749C103.021 25.5826 103.105 25.3523 103.145 25.0838H105.144C105.11 25.6671 104.951 26.1809 104.666 26.625C104.385 27.0658 103.995 27.4105 103.498 27.6591C103.001 27.9077 102.413 28.032 101.733 28.032ZM109.98 28.032C109.194 28.032 108.518 27.8729 107.951 27.5547C107.388 27.2332 106.954 26.7791 106.649 26.1925C106.344 25.6025 106.191 24.9048 106.191 24.0994C106.191 23.3139 106.344 22.6245 106.649 22.0312C106.954 21.438 107.383 20.9756 107.936 20.6442C108.493 20.3127 109.146 20.147 109.895 20.147C110.399 20.147 110.868 20.2282 111.302 20.3906C111.74 20.5497 112.121 20.79 112.446 21.1115C112.774 21.433 113.029 21.8374 113.211 22.3246C113.394 22.8085 113.485 23.3752 113.485 24.0249V24.6065H107.037V23.294H111.491C111.491 22.9891 111.425 22.719 111.292 22.4837C111.16 22.2483 110.976 22.0644 110.74 21.9318C110.508 21.7959 110.238 21.728 109.93 21.728C109.608 21.728 109.323 21.8026 109.075 21.9517C108.83 22.0975 108.637 22.2947 108.498 22.5433C108.359 22.7886 108.288 23.062 108.284 23.3636V24.6115C108.284 24.9893 108.354 25.3158 108.493 25.5909C108.636 25.866 108.836 26.0781 109.095 26.2273C109.353 26.3764 109.66 26.451 110.015 26.451C110.25 26.451 110.465 26.4179 110.661 26.3516C110.856 26.2853 111.024 26.1858 111.163 26.0533C111.302 25.9207 111.408 25.7583 111.481 25.5661L113.44 25.6953C113.34 26.166 113.137 26.5769 112.828 26.9283C112.524 27.2763 112.129 27.5481 111.645 27.7436C111.165 27.9358 110.609 28.032 109.98 28.032ZM114.867 27.8828V20.2464H116.92V21.5788H117C117.139 21.1049 117.372 20.7469 117.701 20.505C118.029 20.2597 118.407 20.1371 118.834 20.1371C118.94 20.1371 119.055 20.1437 119.177 20.157C119.3 20.1702 119.407 20.1884 119.5 20.2116V22.0909C119.401 22.0611 119.263 22.0346 119.088 22.0114C118.912 21.9882 118.751 21.9766 118.605 21.9766C118.294 21.9766 118.015 22.0445 117.77 22.1804C117.528 22.313 117.336 22.4986 117.193 22.7372C117.054 22.9759 116.985 23.2509 116.985 23.5625V27.8828H114.867ZM127.316 28.032C126.53 28.032 125.854 27.8729 125.287 27.5547C124.724 27.2332 124.29 26.7791 123.985 26.1925C123.68 25.6025 123.527 24.9048 123.527 24.0994C123.527 23.3139 123.68 22.6245 123.985 22.0312C124.29 21.438 124.719 20.9756 125.272 20.6442C125.829 20.3127 126.482 20.147 127.231 20.147C127.735 20.147 128.204 20.2282 128.638 20.3906C129.076 20.5497 129.457 20.79 129.782 21.1115C130.11 21.433 130.365 21.8374 130.547 22.3246C130.729 22.8085 130.821 23.3752 130.821 24.0249V24.6065H124.372V23.294H128.827C128.827 22.9891 128.761 22.719 128.628 22.4837C128.496 22.2483 128.312 22.0644 128.076 21.9318C127.844 21.7959 127.574 21.728 127.266 21.728C126.944 21.728 126.659 21.8026 126.411 21.9517C126.166 22.0975 125.973 22.2947 125.834 22.5433C125.695 22.7886 125.624 23.062 125.62 23.3636V24.6115C125.62 24.9893 125.69 25.3158 125.829 25.5909C125.972 25.866 126.172 26.0781 126.431 26.2273C126.689 26.3764 126.996 26.451 127.35 26.451C127.586 26.451 127.801 26.4179 127.997 26.3516C128.192 26.2853 128.36 26.1858 128.499 26.0533C128.638 25.9207 128.744 25.7583 128.817 25.5661L130.776 25.6953C130.676 26.166 130.473 26.5769 130.164 26.9283C129.859 27.2763 129.465 27.5481 128.981 27.7436C128.501 27.9358 127.945 28.032 127.316 28.032ZM141.797 22.424L139.858 22.5433C139.825 22.3776 139.753 22.2285 139.644 22.0959C139.535 21.96 139.39 21.8523 139.211 21.7727C139.036 21.6899 138.825 21.6484 138.58 21.6484C138.252 21.6484 137.975 21.718 137.75 21.8572C137.524 21.9931 137.412 22.1754 137.412 22.4041C137.412 22.5864 137.485 22.7405 137.63 22.8665C137.776 22.9924 138.027 23.0935 138.381 23.1697L139.763 23.4482C140.506 23.6006 141.059 23.8459 141.424 24.1839C141.788 24.522 141.971 24.9661 141.971 25.5163C141.971 26.0168 141.823 26.456 141.528 26.8338C141.237 27.2116 140.835 27.5066 140.325 27.7188C139.818 27.9276 139.233 28.032 138.57 28.032C137.559 28.032 136.754 27.8215 136.154 27.4006C135.557 26.9763 135.208 26.3996 135.105 25.6705L137.188 25.5611C137.251 25.8693 137.403 26.1046 137.645 26.267C137.887 26.4261 138.197 26.5057 138.575 26.5057C138.946 26.5057 139.245 26.4344 139.47 26.2919C139.699 26.1461 139.815 25.9588 139.818 25.7301C139.815 25.5379 139.733 25.3804 139.574 25.2578C139.415 25.1319 139.17 25.0357 138.839 24.9695L137.516 24.706C136.77 24.5568 136.215 24.2983 135.851 23.9304C135.489 23.5625 135.309 23.0935 135.309 22.5234C135.309 22.0329 135.441 21.6103 135.706 21.2557C135.975 20.901 136.351 20.6276 136.835 20.4354C137.322 20.2431 137.892 20.147 138.545 20.147C139.51 20.147 140.269 20.3509 140.822 20.7585C141.379 21.1662 141.704 21.7214 141.797 22.424ZM146.784 28.032C145.999 28.032 145.323 27.8729 144.756 27.5547C144.193 27.2332 143.758 26.7791 143.453 26.1925C143.149 25.6025 142.996 24.9048 142.996 24.0994C142.996 23.3139 143.149 22.6245 143.453 22.0312C143.758 21.438 144.188 20.9756 144.741 20.6442C145.298 20.3127 145.951 20.147 146.7 20.147C147.204 20.147 147.673 20.2282 148.107 20.3906C148.544 20.5497 148.925 20.79 149.25 21.1115C149.578 21.433 149.834 21.8374 150.016 22.3246C150.198 22.8085 150.289 23.3752 150.289 24.0249V24.6065H143.841V23.294H148.296C148.296 22.9891 148.229 22.719 148.097 22.4837C147.964 22.2483 147.78 22.0644 147.545 21.9318C147.313 21.7959 147.043 21.728 146.735 21.728C146.413 21.728 146.128 21.8026 145.88 21.9517C145.634 22.0975 145.442 22.2947 145.303 22.5433C145.164 22.7886 145.092 23.062 145.089 23.3636V24.6115C145.089 24.9893 145.159 25.3158 145.298 25.5909C145.44 25.866 145.641 26.0781 145.899 26.2273C146.158 26.3764 146.465 26.451 146.819 26.451C147.055 26.451 147.27 26.4179 147.465 26.3516C147.661 26.2853 147.828 26.1858 147.968 26.0533C148.107 25.9207 148.213 25.7583 148.286 25.5661L150.245 25.6953C150.145 26.166 149.941 26.5769 149.633 26.9283C149.328 27.2763 148.934 27.5481 148.45 27.7436C147.969 27.9358 147.414 28.032 146.784 28.032ZM56.9366 45.0071C56.3565 45.0071 55.8312 44.858 55.3606 44.5597C54.8932 44.258 54.522 43.8156 54.2469 43.2322C53.9751 42.6456 53.8393 41.9264 53.8393 41.0746C53.8393 40.1996 53.9801 39.4721 54.2618 38.892C54.5436 38.3087 54.9181 37.8729 55.3854 37.5845C55.8561 37.2929 56.3715 37.147 56.9316 37.147C57.3591 37.147 57.7154 37.2199 58.0005 37.3658C58.2888 37.5083 58.5208 37.6873 58.6965 37.9027C58.8755 38.1148 59.0114 38.3236 59.1042 38.5291H59.1688V34.701H61.2817V44.8828H59.1937V43.6598H59.1042C59.0047 43.8719 58.8639 44.0824 58.6816 44.2912C58.5026 44.4967 58.2689 44.6674 57.9806 44.8033C57.6956 44.9392 57.3475 45.0071 56.9366 45.0071ZM57.6077 43.3217C57.9491 43.3217 58.2375 43.2289 58.4728 43.0433C58.7114 42.8544 58.8937 42.5909 59.0197 42.2528C59.1489 41.9148 59.2135 41.5187 59.2135 41.0646C59.2135 40.6106 59.1506 40.2161 59.0246 39.8814C58.8987 39.5466 58.7164 39.2881 58.4778 39.1058C58.2391 38.9235 57.9491 38.8324 57.6077 38.8324C57.2597 38.8324 56.9664 38.9268 56.7278 39.1158C56.4891 39.3047 56.3085 39.5665 56.1858 39.9013C56.0632 40.236 56.0019 40.6238 56.0019 41.0646C56.0019 41.5088 56.0632 41.9015 56.1858 42.2429C56.3118 42.581 56.4924 42.8461 56.7278 43.0384C56.9664 43.2273 57.2597 43.3217 57.6077 43.3217ZM66.5031 45.032C65.7176 45.032 65.0415 44.8729 64.4747 44.5547C63.9113 44.2332 63.4771 43.7791 63.1722 43.1925C62.8673 42.6025 62.7148 41.9048 62.7148 41.0994C62.7148 40.3139 62.8673 39.6245 63.1722 39.0312C63.4771 38.438 63.9063 37.9756 64.4598 37.6442C65.0166 37.3127 65.6696 37.147 66.4186 37.147C66.9224 37.147 67.3914 37.2282 67.8256 37.3906C68.2631 37.5497 68.6442 37.79 68.969 38.1115C69.2972 38.433 69.5524 38.8374 69.7347 39.3246C69.917 39.8085 70.0081 40.3752 70.0081 41.0249V41.6065H63.56V40.294H68.0145C68.0145 39.9891 67.9482 39.719 67.8156 39.4837C67.6831 39.2483 67.4991 39.0644 67.2638 38.9318C67.0318 38.7959 66.7617 38.728 66.4534 38.728C66.1319 38.728 65.8469 38.8026 65.5983 38.9517C65.353 39.0975 65.1608 39.2947 65.0216 39.5433C64.8824 39.7886 64.8111 40.062 64.8078 40.3636V41.6115C64.8078 41.9893 64.8774 42.3158 65.0166 42.5909C65.1592 42.866 65.3597 43.0781 65.6182 43.2273C65.8767 43.3764 66.1833 43.451 66.5379 43.451C66.7733 43.451 66.9887 43.4179 67.1842 43.3516C67.3798 43.2853 67.5472 43.1858 67.6864 43.0533C67.8256 42.9207 67.9316 42.7583 68.0046 42.5661L69.9634 42.6953C69.8639 43.166 69.6601 43.5769 69.3519 43.9283C69.0469 44.2763 68.6525 44.5481 68.1686 44.7436C67.688 44.9358 67.1329 45.032 66.5031 45.032ZM77.7439 39.424L75.805 39.5433C75.7718 39.3776 75.7006 39.2285 75.5912 39.0959C75.4818 38.96 75.3377 38.8523 75.1587 38.7727C74.983 38.6899 74.7726 38.6484 74.5273 38.6484C74.1992 38.6484 73.9224 38.718 73.697 38.8572C73.4717 38.9931 73.359 39.1754 73.359 39.4041C73.359 39.5864 73.4319 39.7405 73.5777 39.8665C73.7235 39.9924 73.9738 40.0935 74.3284 40.1697L75.7105 40.4482C76.453 40.6006 77.0065 40.8459 77.371 41.1839C77.7356 41.522 77.9179 41.9661 77.9179 42.5163C77.9179 43.0168 77.7704 43.456 77.4754 43.8338C77.1838 44.2116 76.7827 44.5066 76.2723 44.7188C75.7652 44.9276 75.1802 45.032 74.5173 45.032C73.5065 45.032 72.7011 44.8215 72.1012 44.4006C71.5046 43.9763 71.1549 43.3996 71.0521 42.6705L73.1352 42.5611C73.1982 42.8693 73.3507 43.1046 73.5926 43.267C73.8346 43.4261 74.1445 43.5057 74.5223 43.5057C74.8935 43.5057 75.1918 43.4344 75.4172 43.2919C75.6459 43.1461 75.7619 42.9588 75.7652 42.7301C75.7619 42.5379 75.6807 42.3804 75.5216 42.2578C75.3625 42.1319 75.1173 42.0357 74.7858 41.9695L73.4634 41.706C72.7176 41.5568 72.1625 41.2983 71.7979 40.9304C71.4366 40.5625 71.256 40.0935 71.256 39.5234C71.256 39.0329 71.3886 38.6103 71.6537 38.2557C71.9222 37.901 72.2984 37.6276 72.7823 37.4354C73.2695 37.2431 73.8396 37.147 74.4925 37.147C75.457 37.147 76.216 37.3509 76.7695 37.7585C77.3263 38.1662 77.6511 38.7214 77.7439 39.424ZM81.4291 45.027C80.9419 45.027 80.5077 44.9425 80.1265 44.7734C79.7454 44.6011 79.4438 44.3475 79.2217 44.0128C79.003 43.6747 78.8936 43.2538 78.8936 42.75C78.8936 42.3258 78.9715 41.9695 79.1273 41.6811C79.283 41.3928 79.4952 41.1607 79.7636 40.9851C80.0321 40.8094 80.337 40.6768 80.6784 40.5874C81.0231 40.4979 81.3844 40.4349 81.7622 40.3984C82.2063 40.352 82.5643 40.3089 82.8361 40.2692C83.1078 40.2261 83.305 40.1631 83.4277 40.0803C83.5503 39.9974 83.6116 39.8748 83.6116 39.7124V39.6825C83.6116 39.3677 83.5122 39.1241 83.3133 38.9517C83.1178 38.7794 82.8394 38.6932 82.4781 38.6932C82.0969 38.6932 81.7937 38.7777 81.5683 38.9467C81.3429 39.1125 81.1938 39.3213 81.1209 39.5732L79.1621 39.4141C79.2615 38.95 79.457 38.549 79.7487 38.2109C80.0404 37.8696 80.4166 37.6077 80.8773 37.4254C81.3413 37.2398 81.8782 37.147 82.488 37.147C82.9123 37.147 83.3183 37.1967 83.7061 37.2962C84.0972 37.3956 84.4435 37.5497 84.7452 37.7585C85.0501 37.9673 85.2904 38.2358 85.466 38.5639C85.6417 38.8887 85.7295 39.2782 85.7295 39.7322V44.8828H83.721V43.8239H83.6613C83.5387 44.0625 83.3746 44.273 83.1692 44.4553C82.9637 44.6342 82.7167 44.7751 82.4284 44.8778C82.14 44.9773 81.8069 45.027 81.4291 45.027ZM82.0356 43.5653C82.3472 43.5653 82.6223 43.504 82.8609 43.3814C83.0996 43.2554 83.2868 43.0864 83.4227 42.8743C83.5586 42.6622 83.6265 42.4219 83.6265 42.1534V41.343C83.5603 41.3861 83.4691 41.4259 83.3531 41.4624C83.2404 41.4955 83.1128 41.527 82.9703 41.5568C82.8278 41.5833 82.6853 41.6082 82.5427 41.6314C82.4002 41.6513 82.271 41.6695 82.155 41.6861C81.9064 41.7225 81.6893 41.7805 81.5037 41.8601C81.3181 41.9396 81.1739 42.0473 81.0711 42.1832C80.9684 42.3158 80.917 42.4815 80.917 42.6804C80.917 42.9688 81.0214 43.1892 81.2302 43.3416C81.4424 43.4908 81.7108 43.5653 82.0356 43.5653ZM91.4792 37.2464V38.8374H86.7661V37.2464H91.4792ZM87.8449 44.8828V36.6946C87.8449 36.1411 87.9527 35.6821 88.1681 35.3175C88.3868 34.9529 88.6851 34.6795 89.063 34.4972C89.4408 34.3149 89.87 34.2237 90.3506 34.2237C90.6754 34.2237 90.9721 34.2486 91.2405 34.2983C91.5123 34.348 91.7145 34.3928 91.8471 34.4325L91.4692 36.0234C91.3864 35.9969 91.2836 35.9721 91.161 35.9489C91.0417 35.9257 90.919 35.9141 90.7931 35.9141C90.4815 35.9141 90.2644 35.987 90.1418 36.1328C90.0192 36.2753 89.9579 36.4759 89.9579 36.7344V44.8828H87.8449ZM92.773 44.8828V37.2464H94.8909V44.8828H92.773ZM93.8369 36.2621C93.5221 36.2621 93.252 36.1577 93.0266 35.9489C92.8045 35.7367 92.6935 35.4832 92.6935 35.1882C92.6935 34.8965 92.8045 34.6463 93.0266 34.4375C93.252 34.2254 93.5221 34.1193 93.8369 34.1193C94.1518 34.1193 94.4203 34.2254 94.6423 34.4375C94.8677 34.6463 94.9804 34.8965 94.9804 35.1882C94.9804 35.4832 94.8677 35.7367 94.6423 35.9489C94.4203 36.1577 94.1518 36.2621 93.8369 36.2621ZM98.765 45.027C98.2778 45.027 97.8436 44.9425 97.4625 44.7734C97.0813 44.6011 96.7797 44.3475 96.5577 44.0128C96.3389 43.6747 96.2295 43.2538 96.2295 42.75C96.2295 42.3258 96.3074 41.9695 96.4632 41.6811C96.619 41.3928 96.8311 41.1607 97.0996 40.9851C97.368 40.8094 97.6729 40.6768 98.0143 40.5874C98.359 40.4979 98.7203 40.4349 99.0981 40.3984C99.5423 40.352 99.9002 40.3089 100.172 40.2692C100.444 40.2261 100.641 40.1631 100.764 40.0803C100.886 39.9974 100.948 39.8748 100.948 39.7124V39.6825C100.948 39.3677 100.848 39.1241 100.649 38.9517C100.454 38.7794 100.175 38.6932 99.814 38.6932C99.4329 38.6932 99.1296 38.7777 98.9042 38.9467C98.6789 39.1125 98.5297 39.3213 98.4568 39.5732L96.498 39.4141C96.5974 38.95 96.793 38.549 97.0846 38.2109C97.3763 37.8696 97.7525 37.6077 98.2132 37.4254C98.6772 37.2398 99.2141 37.147 99.824 37.147C100.248 37.147 100.654 37.1967 101.042 37.2962C101.433 37.3956 101.779 37.5497 102.081 37.7585C102.386 37.9673 102.626 38.2358 102.802 38.5639C102.978 38.8887 103.065 39.2782 103.065 39.7322V44.8828H101.057V43.8239H100.997C100.875 44.0625 100.711 44.273 100.505 44.4553C100.3 44.6342 100.053 44.7751 99.7643 44.8778C99.476 44.9773 99.1429 45.027 98.765 45.027ZM99.3716 43.5653C99.6831 43.5653 99.9582 43.504 100.197 43.3814C100.435 43.2554 100.623 43.0864 100.759 42.8743C100.895 42.6622 100.962 42.4219 100.962 42.1534V41.343C100.896 41.3861 100.805 41.4259 100.689 41.4624C100.576 41.4955 100.449 41.527 100.306 41.5568C100.164 41.5833 100.021 41.6082 99.8787 41.6314C99.7362 41.6513 99.6069 41.6695 99.4909 41.6861C99.2423 41.7225 99.0252 41.7805 98.8396 41.8601C98.654 41.9396 98.5098 42.0473 98.4071 42.1832C98.3043 42.3158 98.253 42.4815 98.253 42.6804C98.253 42.9688 98.3574 43.1892 98.5662 43.3416C98.7783 43.4908 99.0468 43.5653 99.3716 43.5653ZM104.709 44.8828V37.2464H106.762V38.5788H106.841C106.981 38.1049 107.214 37.7469 107.542 37.505C107.871 37.2597 108.248 37.1371 108.676 37.1371C108.782 37.1371 108.896 37.1437 109.019 37.157C109.142 37.1702 109.249 37.1884 109.342 37.2116V39.0909C109.243 39.0611 109.105 39.0346 108.929 39.0114C108.754 38.9882 108.593 38.9766 108.447 38.9766C108.136 38.9766 107.857 39.0445 107.612 39.1804C107.37 39.313 107.178 39.4986 107.035 39.7372C106.896 39.9759 106.826 40.2509 106.826 40.5625V44.8828H104.709ZM112.257 41.8303V41.6612C112.26 41.0812 112.311 40.6188 112.411 40.2741C112.514 39.9295 112.663 39.651 112.858 39.4389C113.054 39.2268 113.289 39.0346 113.564 38.8622C113.77 38.7296 113.954 38.5921 114.116 38.4496C114.278 38.3071 114.408 38.1496 114.504 37.9773C114.6 37.8016 114.648 37.6061 114.648 37.3906C114.648 37.1619 114.593 36.9614 114.484 36.7891C114.375 36.6167 114.227 36.4841 114.041 36.3913C113.859 36.2985 113.657 36.2521 113.435 36.2521C113.22 36.2521 113.016 36.3002 112.823 36.3963C112.631 36.4891 112.474 36.6283 112.351 36.8139C112.229 36.9962 112.162 37.2232 112.152 37.495H110.124C110.14 36.8321 110.3 36.2853 110.601 35.8544C110.903 35.4202 111.302 35.0971 111.799 34.8849C112.296 34.6695 112.845 34.5618 113.445 34.5618C114.104 34.5618 114.688 34.6712 115.195 34.8899C115.702 35.1053 116.1 35.4186 116.388 35.8295C116.676 36.2405 116.821 36.736 116.821 37.3161C116.821 37.7038 116.756 38.0485 116.627 38.3501C116.501 38.6484 116.323 38.9136 116.095 39.1456C115.866 39.3743 115.596 39.5814 115.284 39.767C115.023 39.9228 114.807 40.0852 114.638 40.2543C114.472 40.4233 114.348 40.6188 114.265 40.8409C114.186 41.063 114.144 41.3364 114.141 41.6612V41.8303H112.257ZM113.241 45.0121C112.91 45.0121 112.626 44.8961 112.391 44.6641C112.159 44.4287 112.045 44.147 112.048 43.8189C112.045 43.4941 112.159 43.2157 112.391 42.9837C112.626 42.7517 112.91 42.6357 113.241 42.6357C113.556 42.6357 113.833 42.7517 114.071 42.9837C114.31 43.2157 114.431 43.4941 114.434 43.8189C114.431 44.0376 114.373 44.2382 114.26 44.4205C114.151 44.5994 114.007 44.7436 113.828 44.853C113.649 44.959 113.453 45.0121 113.241 45.0121Z" fill="#5A341D"/>
</svg>
